<svg id="a1f2ceb4-1cf9-4b0c-86bf-cd4c74ab3dca" data-name="Layer 1" xmlns="http://www.w3.org/2000/svg" viewBox="0 0 144 144"><defs><style>.b7f7abd2-0b6a-4b90-a8f9-9f25c55e829c{fill:#231f20;}</style></defs><path class="b7f7abd2-0b6a-4b90-a8f9-9f25c55e829c" d="M94.59,73.24c-1.74,1.76-3.43,5.27-3.43,10.19a17.29,17.29,0,0,0,1.45,7.27,14.45,14.45,0,0,0-2-2.49,13.29,13.29,0,0,0-4.47-3,8.44,8.44,0,0,1-.21-1.87,10.2,10.2,0,0,1,2.82-6.73,15.48,15.48,0,0,1,5-3.89A12.46,12.46,0,0,0,88.28,76c-2.65,2.62-3.62,5.4-3.64,7.26a6,6,0,0,0,.16,1.46,6.54,6.54,0,0,0-1.45-.17c-1.87,0-4.65,1-7.3,3.58a12.45,12.45,0,0,0-3.4,5.46,15.66,15.66,0,0,1,3.93-5,10.25,10.25,0,0,1,6.76-2.76,9.19,9.19,0,0,1,1.87.23,13.12,13.12,0,0,0,3,4.49,15,15,0,0,0,2.46,2,17.2,17.2,0,0,0-7.25-1.44c-4.92,0-8.43,1.69-10.19,3.42A9.55,9.55,0,0,0,72,96.16a9,9,0,0,0-1.24-1.58c-1.76-1.73-5.27-3.42-10.19-3.42a17.29,17.29,0,0,0-7.27,1.45,15,15,0,0,0,2.49-2,13.29,13.29,0,0,0,3.05-4.47,8.44,8.44,0,0,1,1.87-.21,10.2,10.2,0,0,1,6.73,2.82,15.48,15.48,0,0,1,3.89,5A12.46,12.46,0,0,0,68,88.28c-2.62-2.65-5.4-3.62-7.27-3.64a6,6,0,0,0-1.45.16,6.54,6.54,0,0,0,.17-1.45c0-1.88-1-4.65-3.58-7.3a12.45,12.45,0,0,0-5.46-3.4,15.53,15.53,0,0,1,5,3.93,10.25,10.25,0,0,1,2.76,6.76,9.19,9.19,0,0,1-.23,1.87,13.12,13.12,0,0,0-4.49,3,15,15,0,0,0-2,2.46,17.36,17.36,0,0,0,1.44-7.25c0-4.92-1.69-8.43-3.43-10.19A9,9,0,0,0,47.84,72a9.55,9.55,0,0,0,1.57-1.24c1.74-1.76,3.43-5.27,3.43-10.19a17.26,17.26,0,0,0-1.45-7.27,15,15,0,0,0,2,2.49,13.29,13.29,0,0,0,4.47,3.05,8.44,8.44,0,0,1,.21,1.87,10.2,10.2,0,0,1-2.82,6.73,15.33,15.33,0,0,1-5,3.88A12.43,12.43,0,0,0,55.72,68a11.08,11.08,0,0,0,3.65-7.27,6.54,6.54,0,0,0-.17-1.45,6.6,6.6,0,0,0,1.45.17c1.87,0,4.66-1,7.3-3.58a12.5,12.5,0,0,0,3.4-5.46,15.53,15.53,0,0,1-3.93,5,10.25,10.25,0,0,1-6.76,2.76,9,9,0,0,1-1.86-.23,13.32,13.32,0,0,0-3-4.49,14.84,14.84,0,0,0-2.47-2,17.52,17.52,0,0,0,7.25,1.44c4.92,0,8.43-1.7,10.19-3.44A8.6,8.6,0,0,0,72,47.84a9,9,0,0,0,1.24,1.57c1.76,1.74,5.27,3.44,10.19,3.44a17.25,17.25,0,0,0,7.27-1.46,15.93,15.93,0,0,0-2.49,2,13.2,13.2,0,0,0-3,4.47,8.44,8.44,0,0,1-1.87.21,10.2,10.2,0,0,1-6.73-2.82,15.48,15.48,0,0,1-3.89-5A12.56,12.56,0,0,0,76,55.72c2.63,2.65,5.4,3.62,7.27,3.64a6,6,0,0,0,1.45-.16,7.11,7.11,0,0,0-.17,1.45c0,1.87,1,4.66,3.58,7.3a12.5,12.5,0,0,0,5.46,3.4,15.66,15.66,0,0,1-5-3.93,10.25,10.25,0,0,1-2.76-6.76,8.93,8.93,0,0,1,.23-1.86,13.42,13.42,0,0,0,4.49-3,15.46,15.46,0,0,0,2-2.47,17.39,17.39,0,0,0-1.44,7.25c0,4.92,1.69,8.43,3.43,10.19A9.55,9.55,0,0,0,96.16,72,9,9,0,0,0,94.59,73.24Z"/></svg>