<svg id="af467f29-ff74-4f74-aec1-c2ba947bcc9c" data-name="Layer 1" xmlns="http://www.w3.org/2000/svg" viewBox="0 0 144 144"><defs><style>.f9b0d160-ebe3-4eaf-a495-27fd2c0804ac{fill:#231f20;}</style></defs><path class="f9b0d160-ebe3-4eaf-a495-27fd2c0804ac" d="M87.28,71.21A8.3,8.3,0,0,0,91.55,67c2.67-6-.56-11.34-4.68-13.76a10.85,10.85,0,0,0-9.8-.79A14.16,14.16,0,0,0,71.21,57a8.32,8.32,0,0,0-4.46-4.74c-6-2.67-11.33.56-13.75,4.68a10.82,10.82,0,0,0-.79,9.8,14.25,14.25,0,0,0,4.56,5.87A8.27,8.27,0,0,0,52,77c-2.67,6,.56,11.34,4.68,13.75a10.79,10.79,0,0,0,9.8.79,14.34,14.34,0,0,0,6.38-5.27,1.83,1.83,0,0,0,.06.25,8.38,8.38,0,0,0,4.63,5.24c6,2.67,11.34-.56,13.76-4.68a10.85,10.85,0,0,0,.79-9.8A14.39,14.39,0,0,0,87.28,71.21ZM55.22,64.74a8.78,8.78,0,0,1,1.5-7.06,6.64,6.64,0,0,1,4.64-2.74,7.71,7.71,0,0,1,4.64,1,5.27,5.27,0,0,1,2,6.86,3.63,3.63,0,0,1-1.87,1.62,2.8,2.8,0,0,1-1.74.07,3.36,3.36,0,0,1-.65-.28,3.39,3.39,0,0,1-1.59-2,3,3,0,0,1,0-1.46l.3-1.12-1,.51a2.56,2.56,0,0,0-.9.74A3.21,3.21,0,0,0,60,63.37a4.69,4.69,0,0,0,2.22,3.14,6,6,0,0,0,4.54.58,6.38,6.38,0,0,0,2-.91,12.89,12.89,0,0,0,1.46,4.24c0,.11.12.21.18.32a11.84,11.84,0,0,1-2.44,1,10.31,10.31,0,0,1-8-.85A9.32,9.32,0,0,1,55.22,64.74ZM70.71,83.83a9.33,9.33,0,0,1-6.16,4.72,8.77,8.77,0,0,1-7.06-1.49,6.61,6.61,0,0,1-2.74-4.64,7.7,7.7,0,0,1,1-4.64,5.26,5.26,0,0,1,6.86-2,3.66,3.66,0,0,1,1.62,1.87,2.88,2.88,0,0,1,.07,1.74A3.16,3.16,0,0,1,64,80a3.32,3.32,0,0,1-2,1.58,2.85,2.85,0,0,1-1.45,0l-1.12-.3.5,1a2.62,2.62,0,0,0,.75.9,3.21,3.21,0,0,0,2.55.55,4.71,4.71,0,0,0,3.14-2.22,6,6,0,0,0,.58-4.53,6.43,6.43,0,0,0-.91-2,13,13,0,0,0,4.24-1.45l.32-.19a12.32,12.32,0,0,1,1,2.44A10.33,10.33,0,0,1,70.71,83.83ZM72,68.1a10.31,10.31,0,0,1,.85-8A9.32,9.32,0,0,1,79,55.41a8.77,8.77,0,0,1,7.06,1.5,6.57,6.57,0,0,1,2.74,4.64,7.63,7.63,0,0,1-1,4.64,5.26,5.26,0,0,1-6.86,2,3.63,3.63,0,0,1-1.62-1.87,2.85,2.85,0,0,1-.07-1.73,2.76,2.76,0,0,1,.29-.66,3.34,3.34,0,0,1,2-1.59,2.85,2.85,0,0,1,1.45,0l1.12.29-.5-1a2.65,2.65,0,0,0-.75-.91,3.25,3.25,0,0,0-2.55-.55,4.66,4.66,0,0,0-3.13,2.23,5.91,5.91,0,0,0-.58,4.53,6.25,6.25,0,0,0,1,2.13,13.42,13.42,0,0,0-3.59,1.34q-.45.24-.87.51A12,12,0,0,1,72,68.1Zm15.6,18.22A6.64,6.64,0,0,1,83,89.06a7.7,7.7,0,0,1-4.64-1,5.28,5.28,0,0,1-2-6.86,3.68,3.68,0,0,1,1.88-1.62,2.85,2.85,0,0,1,1.73-.07,3.19,3.19,0,0,1,.66.28,3.36,3.36,0,0,1,1.59,2,2.89,2.89,0,0,1,0,1.46l-.29,1.12,1-.51a2.5,2.5,0,0,0,.91-.74,3.25,3.25,0,0,0,.55-2.55,4.68,4.68,0,0,0-2.23-3.14,6,6,0,0,0-4.53-.58,6.28,6.28,0,0,0-2.67,1.45,12.78,12.78,0,0,0-1.5-4.78,12.14,12.14,0,0,1,3-1.33,10.31,10.31,0,0,1,8,.85,9.32,9.32,0,0,1,4.73,6.16A8.78,8.78,0,0,1,87.62,86.32Z"/></svg>