<svg id="be910d8d-56d5-492d-b983-98995c1646a6" data-name="Layer 1" xmlns="http://www.w3.org/2000/svg" viewBox="0 0 144 144"><defs><style>.a9a82c5e-4632-4ceb-98e3-ffafd0ef0819{fill:#231f20;}</style></defs><path class="a9a82c5e-4632-4ceb-98e3-ffafd0ef0819" d="M80.38,67.33a14,14,0,0,1,7.67.57c3.13,1.18,5.39,3.65,3,6.29a7.31,7.31,0,0,1-4.36,2,11,11,0,0,1-5.16-.47,3.39,3.39,0,0,1-2.19-1.84,1.82,1.82,0,0,1,.69-2,4.62,4.62,0,0,1,2.59-.94,4,4,0,0,1,2,.3,1.72,1.72,0,0,1,.55.43l.34.48-.87-.16a4,4,0,0,0-1.14,0,3.16,3.16,0,0,0-1.67.67,1.16,1.16,0,0,0-.26.29.73.73,0,0,0,0,.78,2.11,2.11,0,0,0,1.17.88,6.36,6.36,0,0,0,5.51-.76,2.52,2.52,0,0,0,1-2.07c0-.59-.43-1.44-1.92-2.15a11,11,0,0,0-5.48-.83,8.92,8.92,0,0,0-5.09,2,3.1,3.1,0,0,0-1.08,3.56,4.75,4.75,0,0,0,1.54,2,16.25,16.25,0,0,0,9,2.27c6.45-.08,11.63-3.14,11.58-6.82s-5.31-6.59-11.76-6.5c-4.88.06-9,1.84-10.75,4.29A13.39,13.39,0,0,1,80.38,67.33Z"/><path class="a9a82c5e-4632-4ceb-98e3-ffafd0ef0819" d="M67.33,63.62A14.13,14.13,0,0,1,67.9,56c1.18-3.13,3.65-5.39,6.29-3a7.31,7.31,0,0,1,2,4.36,11,11,0,0,1-.47,5.16,3.39,3.39,0,0,1-1.84,2.19,1.83,1.83,0,0,1-2-.69,4.62,4.62,0,0,1-.94-2.59,3.9,3.9,0,0,1,.31-2,1.45,1.45,0,0,1,.42-.54l.48-.35-.16.87a4.36,4.36,0,0,0,0,1.14,3.16,3.16,0,0,0,.67,1.67,1.16,1.16,0,0,0,.29.26.76.76,0,0,0,.78,0,2.18,2.18,0,0,0,.88-1.18,6.36,6.36,0,0,0-.76-5.51,2.52,2.52,0,0,0-2.07-1c-.59.05-1.44.43-2.15,1.92a11,11,0,0,0-.83,5.48,9,9,0,0,0,2,5.09,3.1,3.1,0,0,0,3.56,1.08,4.75,4.75,0,0,0,2-1.54,16.25,16.25,0,0,0,2.27-9c-.08-6.45-3.14-11.63-6.82-11.58s-6.59,5.31-6.5,11.76c.06,4.88,1.84,9,4.29,10.75A13.46,13.46,0,0,1,67.33,63.62Z"/><path class="a9a82c5e-4632-4ceb-98e3-ffafd0ef0819" d="M63.62,76.67A14.13,14.13,0,0,1,56,76.1c-3.13-1.18-5.39-3.65-3-6.29a7.31,7.31,0,0,1,4.36-2,11,11,0,0,1,5.16.47,3.39,3.39,0,0,1,2.19,1.84,1.83,1.83,0,0,1-.69,2,4.62,4.62,0,0,1-2.59.94,3.9,3.9,0,0,1-2-.31,1.45,1.45,0,0,1-.54-.42l-.35-.48.87.16a4,4,0,0,0,1.14,0,3.16,3.16,0,0,0,1.67-.67,1.16,1.16,0,0,0,.26-.29.73.73,0,0,0,0-.78,2.11,2.11,0,0,0-1.17-.88,6.36,6.36,0,0,0-5.51.76,2.52,2.52,0,0,0-1,2.07c.05.59.43,1.44,1.92,2.15a11,11,0,0,0,5.48.83,8.92,8.92,0,0,0,5.09-2,3.1,3.1,0,0,0,1.08-3.56,4.75,4.75,0,0,0-1.54-2,16.25,16.25,0,0,0-9-2.27c-6.45.08-11.63,3.14-11.58,6.82s5.31,6.59,11.76,6.5c4.88-.06,9-1.84,10.75-4.29A13.39,13.39,0,0,1,63.62,76.67Z"/><path class="a9a82c5e-4632-4ceb-98e3-ffafd0ef0819" d="M76.67,80.38a14.13,14.13,0,0,1-.57,7.67c-1.18,3.13-3.65,5.39-6.29,3a7.31,7.31,0,0,1-2-4.36,11,11,0,0,1,.47-5.16,3.36,3.36,0,0,1,1.84-2.19,1.83,1.83,0,0,1,2,.69,4.62,4.62,0,0,1,.94,2.59,3.9,3.9,0,0,1-.31,2,1.37,1.37,0,0,1-.42.54l-.48.35.16-.87a4.36,4.36,0,0,0,0-1.14,3.23,3.23,0,0,0-.67-1.68,1.33,1.33,0,0,0-.29-.25.76.76,0,0,0-.78,0,2.18,2.18,0,0,0-.88,1.18,6.36,6.36,0,0,0,.76,5.51,2.52,2.52,0,0,0,2.07,1c.59-.06,1.44-.43,2.15-1.92a11,11,0,0,0,.83-5.48,8.92,8.92,0,0,0-2-5.09,3.1,3.1,0,0,0-3.56-1.08,4.75,4.75,0,0,0-2,1.54,16.25,16.25,0,0,0-2.27,9c.08,6.45,3.14,11.63,6.82,11.58s6.59-5.31,6.5-11.76c-.06-4.88-1.84-9-4.29-10.75A13.39,13.39,0,0,1,76.67,80.38Z"/></svg>