<svg id="fe68acef-ae5b-4e7a-a234-841e440bd4be" data-name="Layer 1" xmlns="http://www.w3.org/2000/svg" viewBox="0 0 144 144"><defs><style>.bf0216f0-ec63-4694-a6e8-5016ee8dfe9f{fill:#231f20;}</style></defs><path class="bf0216f0-ec63-4694-a6e8-5016ee8dfe9f" d="M72,94.81c-1.33,3.27-2.17,6.58,0,9.62,2.17-3,1.33-6.35,0-9.62"/><path class="bf0216f0-ec63-4694-a6e8-5016ee8dfe9f" d="M61.51,82.49H58.62a5.5,5.5,0,0,0-1.06,4l.61,0a5.39,5.39,0,0,0,3.34-1.09V82.49"/><path class="bf0216f0-ec63-4694-a6e8-5016ee8dfe9f" d="M70.09,82.49h-4c-2.8,3.73.46,8.42,2.23,13.15.6-1.58,1.37-3.16,2-4.7-1.28-3.06-2.1-6-.24-8.45"/><path class="bf0216f0-ec63-4694-a6e8-5016ee8dfe9f" d="M77.92,82.49h-4c1.86,2.48,1,5.39-.24,8.45.65,1.54,1.42,3.12,2,4.7,1.77-4.73,5-9.43,2.23-13.15"/><path class="bf0216f0-ec63-4694-a6e8-5016ee8dfe9f" d="M53.06,73.67c-.64.27-3.77,1.67-4.7,2,.93.35,1.86.76,2.78,1.16C53.59,77.93,56,79,58.17,79a5.33,5.33,0,0,0,3.34-1.09v-4A5.39,5.39,0,0,1,58.17,75a13.85,13.85,0,0,1-5.11-1.33"/><path class="bf0216f0-ec63-4694-a6e8-5016ee8dfe9f" d="M90.94,73.67A13.84,13.84,0,0,1,85.82,75a5.38,5.38,0,0,1-3.33-1.09v4A5.3,5.3,0,0,0,85.82,79c2.2,0,4.59-1.08,7-2.16.92-.4,1.85-.81,2.78-1.16-.93-.35-4.07-1.75-4.7-2"/><path class="bf0216f0-ec63-4694-a6e8-5016ee8dfe9f" d="M43.74,70.67A7,7,0,0,0,39.57,72a7,7,0,0,0,4.17,1.33A14.86,14.86,0,0,0,49.19,72a14.86,14.86,0,0,0-5.45-1.33"/><path class="bf0216f0-ec63-4694-a6e8-5016ee8dfe9f" d="M100.26,70.67A14.91,14.91,0,0,0,94.8,72a14.91,14.91,0,0,0,5.46,1.33A7,7,0,0,0,104.43,72a7,7,0,0,0-4.17-1.33"/><path class="bf0216f0-ec63-4694-a6e8-5016ee8dfe9f" d="M58.17,65c-2.19,0-4.58,1.08-7,2.16-.92.41-1.85.81-2.79,1.16.94.36,4.07,1.76,4.71,2A13.82,13.82,0,0,1,58.18,69a5.37,5.37,0,0,1,3.33,1.08v-4A5.39,5.39,0,0,0,58.17,65"/><path class="bf0216f0-ec63-4694-a6e8-5016ee8dfe9f" d="M85.82,65a5.36,5.36,0,0,0-3.33,1.09v4A5.35,5.35,0,0,1,85.82,69a13.87,13.87,0,0,1,5.12,1.32c.63-.26,3.77-1.66,4.7-2-.93-.35-1.86-.75-2.78-1.16C90.41,66.07,88,65,85.82,65"/><polyline class="bf0216f0-ec63-4694-a6e8-5016ee8dfe9f" points="80.42 63.58 63.58 63.58 63.58 80.42 80.42 80.42 80.42 63.58"/><path class="bf0216f0-ec63-4694-a6e8-5016ee8dfe9f" d="M58.18,57.53l-.62,0a5.5,5.5,0,0,0,1.06,3.95h2.89V58.62a5.36,5.36,0,0,0-3.33-1.09"/><path class="bf0216f0-ec63-4694-a6e8-5016ee8dfe9f" d="M85.81,57.53a5.35,5.35,0,0,0-3.32,1.09v2.89h2.89a5.5,5.5,0,0,0,1.06-3.95q-.31,0-.63,0"/><path class="bf0216f0-ec63-4694-a6e8-5016ee8dfe9f" d="M75.69,48.36c-.6,1.58-1.37,3.16-2,4.7,1.28,3.07,2.1,6,.24,8.45h4c2.8-3.72-.46-8.42-2.23-13.15"/><path class="bf0216f0-ec63-4694-a6e8-5016ee8dfe9f" d="M68.31,48.36c-1.77,4.73-5,9.43-2.23,13.15h4c-1.86-2.47-1-5.38.24-8.45-.65-1.54-1.42-3.12-2-4.7"/><path class="bf0216f0-ec63-4694-a6e8-5016ee8dfe9f" d="M72,39.57c-2.17,3-1.33,6.35,0,9.62,1.33-3.27,2.17-6.58,0-9.62"/><path class="bf0216f0-ec63-4694-a6e8-5016ee8dfe9f" d="M85.38,82.49H82.49v2.89a5.38,5.38,0,0,0,3.33,1.09c.21,0,.41,0,.62,0a5.5,5.5,0,0,0-1.06-4"/></svg>