<svg id="fb8d8091-1211-485e-9a9a-32db3d5dbda6" data-name="Layer 1" xmlns="http://www.w3.org/2000/svg" viewBox="0 0 144 144"><defs><style>.f97d06e9-d4a3-49f0-9c57-bf54b0f99b27{fill:#231f20;fill-rule:evenodd;}</style></defs><path class="f97d06e9-d4a3-49f0-9c57-bf54b0f99b27" d="M76.15,56a4.08,4.08,0,1,1-4.08-4.08A4.08,4.08,0,0,1,76.15,56Z"/><path class="f97d06e9-d4a3-49f0-9c57-bf54b0f99b27" d="M80,59.82a5.16,5.16,0,0,0-1.5.23c-2.1.65-3.32,2.52-6.43,2.67-3.1-.15-4.32-2-6.43-2.67a5.11,5.11,0,0,0-1.49-.23,4.07,4.07,0,0,0,0,8.13h0a6.16,6.16,0,0,0,1.47-.22c2.11-.66,3.33-2.53,6.43-2.68,3.11.15,4.33,2,6.43,2.68A6.16,6.16,0,0,0,80,68h0a4.07,4.07,0,0,0,0-8.13Z"/><path class="f97d06e9-d4a3-49f0-9c57-bf54b0f99b27" d="M76.15,88a4.08,4.08,0,1,0-4.08,4.08A4.08,4.08,0,0,0,76.15,88Z"/><path class="f97d06e9-d4a3-49f0-9c57-bf54b0f99b27" d="M80,84.18A5.16,5.16,0,0,1,78.5,84c-2.1-.65-3.32-2.52-6.43-2.67-3.1.15-4.32,2-6.43,2.67a5.11,5.11,0,0,1-1.49.23,4.07,4.07,0,0,1,0-8.13h0a6.72,6.72,0,0,1,1.47.22c2.11.66,3.33,2.53,6.43,2.68,3.11-.15,4.33-2,6.43-2.68A6.72,6.72,0,0,1,80,76.05h0a4.07,4.07,0,0,1,0,8.13Z"/><path class="f97d06e9-d4a3-49f0-9c57-bf54b0f99b27" d="M87.77,67.81h0a6.79,6.79,0,0,0-1.47.23c-2.1.66-3.32,2.52-6.43,2.68-3.1-.16-4.33-2-6.43-2.68a6.48,6.48,0,0,0-1.37-.23,6.79,6.79,0,0,0-1.47.23c-2.11.66-3.33,2.52-6.43,2.68-3.11-.16-4.33-2-6.43-2.68a6.78,6.78,0,0,0-1.48-.23h0a4.07,4.07,0,0,0,0,8.14,5.56,5.56,0,0,0,1.5-.23c2.1-.66,3.32-2.52,6.43-2.67,3.1.15,4.32,2,6.43,2.67a5.51,5.51,0,0,0,1.49.23,5.15,5.15,0,0,0,1.35-.23c2.1-.66,3.33-2.52,6.43-2.67,3.11.15,4.33,2,6.43,2.67a5.51,5.51,0,0,0,1.49.23,4.07,4.07,0,0,0,0-8.14Z"/></svg>