<svg id="f5e3f6a2-858f-4151-a05b-174896bba85a" data-name="Layer 1" xmlns="http://www.w3.org/2000/svg" viewBox="0 0 144 144"><defs><style>.bde4fd7b-5a2f-4fee-b13f-3805f296ab80{fill:#231f20;}</style></defs><path class="bde4fd7b-5a2f-4fee-b13f-3805f296ab80" d="M89.65,79.26h0a9.15,9.15,0,0,0-5,1.45,6.67,6.67,0,0,1-7.66,0,9.21,9.21,0,0,0-5-1.45h0a9.21,9.21,0,0,0-5,1.45,6.67,6.67,0,0,1-7.66,0,9.15,9.15,0,0,0-5-1.45h0a9.15,9.15,0,0,0-5,1.45,6.73,6.73,0,0,1-3.84,1.21v2.43a9,9,0,0,0,5.13-1.54,5.4,5.4,0,0,1,3.7-1.12,5.42,5.42,0,0,1,3.7,1.12,9,9,0,0,0,5.11,1.54h0a9,9,0,0,0,5.11-1.54A5.42,5.42,0,0,1,72,81.69a5.42,5.42,0,0,1,3.7,1.12,9,9,0,0,0,5.11,1.54h0a9,9,0,0,0,5.1-1.54,6.67,6.67,0,0,1,7.4,0,9,9,0,0,0,5.13,1.54V81.92a6.73,6.73,0,0,1-3.84-1.21A9.15,9.15,0,0,0,89.65,79.26Z"/><path class="bde4fd7b-5a2f-4fee-b13f-3805f296ab80" d="M89.65,74.36h0a9.23,9.23,0,0,0-5,1.44,6.62,6.62,0,0,1-7.66,0,9.29,9.29,0,0,0-5-1.44h0a9.29,9.29,0,0,0-5,1.44,6.62,6.62,0,0,1-7.66,0,9.23,9.23,0,0,0-5-1.44h0a9.23,9.23,0,0,0-5,1.44A6.66,6.66,0,0,1,45.54,77v2.43a8.93,8.93,0,0,0,5.13-1.55,5.45,5.45,0,0,1,3.7-1.11,5.46,5.46,0,0,1,3.7,1.11,9,9,0,0,0,5.11,1.55h0A9,9,0,0,0,68.3,77.9,5.46,5.46,0,0,1,72,76.79a5.46,5.46,0,0,1,3.7,1.11,8.93,8.93,0,0,0,5.11,1.54h0a8.9,8.9,0,0,0,5.1-1.54,6.72,6.72,0,0,1,7.4,0,9,9,0,0,0,5.13,1.55V77a6.66,6.66,0,0,1-3.84-1.22A9.23,9.23,0,0,0,89.65,74.36Z"/><path class="bde4fd7b-5a2f-4fee-b13f-3805f296ab80" d="M89.65,69.46h0a9.14,9.14,0,0,0-5,1.44,6.67,6.67,0,0,1-7.66,0,9.2,9.2,0,0,0-5-1.44h0a9.2,9.2,0,0,0-5,1.44,6.67,6.67,0,0,1-7.66,0,9.14,9.14,0,0,0-5-1.44h0a9.14,9.14,0,0,0-5,1.44,6.73,6.73,0,0,1-3.84,1.21v2.43A9,9,0,0,0,50.67,73a5.45,5.45,0,0,1,3.7-1.11A5.46,5.46,0,0,1,58.07,73a8.93,8.93,0,0,0,5.11,1.54h0A8.93,8.93,0,0,0,68.3,73,5.46,5.46,0,0,1,72,71.89,5.46,5.46,0,0,1,75.7,73a8.93,8.93,0,0,0,5.11,1.54h0A8.9,8.9,0,0,0,85.93,73a6.72,6.72,0,0,1,7.4,0,9,9,0,0,0,5.13,1.54V72.11a6.73,6.73,0,0,1-3.84-1.21A9.14,9.14,0,0,0,89.65,69.46Z"/><path class="bde4fd7b-5a2f-4fee-b13f-3805f296ab80" d="M94.62,66a9.06,9.06,0,0,0-5-1.44h0a9.06,9.06,0,0,0-5,1.44A6.67,6.67,0,0,1,77,66a9.12,9.12,0,0,0-5-1.44h0A9.12,9.12,0,0,0,67,66a6.67,6.67,0,0,1-7.66,0,9.06,9.06,0,0,0-5-1.44h0a9.06,9.06,0,0,0-5,1.44,6.73,6.73,0,0,1-3.84,1.21v2.43a9,9,0,0,0,5.13-1.54A5.5,5.5,0,0,1,54.37,67a5.52,5.52,0,0,1,3.7,1.12,8.93,8.93,0,0,0,5.11,1.54h0A8.93,8.93,0,0,0,68.3,68.1a6.67,6.67,0,0,1,7.4,0,8.93,8.93,0,0,0,5.11,1.54h0a8.9,8.9,0,0,0,5.1-1.54,6.67,6.67,0,0,1,7.4,0,9,9,0,0,0,5.13,1.54V67.21A6.73,6.73,0,0,1,94.62,66Z"/><path class="bde4fd7b-5a2f-4fee-b13f-3805f296ab80" d="M94.62,61.1a9.15,9.15,0,0,0-5-1.45h0a9.15,9.15,0,0,0-5,1.45,6.67,6.67,0,0,1-7.66,0,9.21,9.21,0,0,0-5-1.45h0a9.21,9.21,0,0,0-5,1.45,6.67,6.67,0,0,1-7.66,0,9.15,9.15,0,0,0-5-1.45h0a9.15,9.15,0,0,0-5,1.45,6.73,6.73,0,0,1-3.84,1.21v2.43a9,9,0,0,0,5.13-1.54,5.4,5.4,0,0,1,3.7-1.12,5.42,5.42,0,0,1,3.7,1.12,9,9,0,0,0,5.11,1.54h0A9,9,0,0,0,68.3,63.2,5.42,5.42,0,0,1,72,62.08a5.42,5.42,0,0,1,3.7,1.12,9,9,0,0,0,5.11,1.54h0a9,9,0,0,0,5.1-1.54,6.67,6.67,0,0,1,7.4,0,9,9,0,0,0,5.13,1.54V62.31A6.73,6.73,0,0,1,94.62,61.1Z"/></svg>