<svg id="bdeebffc-a586-45ee-a252-e1bae7cbce91" data-name="Layer 1" xmlns="http://www.w3.org/2000/svg" viewBox="0 0 144 144"><defs><style>.e45235df-238d-4642-b692-147188703e81{fill:#231f20;fill-rule:evenodd;}</style></defs><path class="e45235df-238d-4642-b692-147188703e81" d="M91.16,71.71C83.93,74.09,81.37,82,70.61,84.23c-2.72.56-7.57.85-12.07,1.26l3.55,2.93a60.73,60.73,0,0,0,7.61-.66c8.66-1.09,10.61-10.34,19.88-12.19,1.86-.38,9-1.14,13.25-1.48L98.7,70.68A38.58,38.58,0,0,0,91.16,71.71Z"/><path class="e45235df-238d-4642-b692-147188703e81" d="M85.37,66.68C78.14,69.06,75.58,77,64.82,79.2c-2.72.56-7.57.85-12.07,1.26l3.55,2.93a60.73,60.73,0,0,0,7.61-.66c8.66-1.09,10.61-10.34,19.88-12.19,1.86-.38,9-1.14,13.25-1.48L92.9,65.65A38.35,38.35,0,0,0,85.37,66.68Z"/><path class="e45235df-238d-4642-b692-147188703e81" d="M79.58,61.65C72.34,64,69.79,72,59,74.17c-2.72.56-7.57.85-12.07,1.26l3.54,2.92a56.83,56.83,0,0,0,7.61-.66C66.77,76.61,68.73,67.36,78,65.51c1.86-.38,9-1.14,13.25-1.48l-4.14-3.42A39,39,0,0,0,79.58,61.65Z"/><path class="e45235df-238d-4642-b692-147188703e81" d="M73.78,56.62C66.55,59,64,66.92,53.24,69.14c-2.73.56-7.57.85-12.07,1.26l3.54,2.92a57.14,57.14,0,0,0,7.61-.66C61,71.58,62.93,62.33,72.21,60.48c1.85-.38,9-1.14,13.25-1.49l-4.14-3.41A39.25,39.25,0,0,0,73.78,56.62Z"/></svg>