<svg id="acbc5df2-8d59-4b38-9f88-ee7af57c3375" data-name="Layer 1" xmlns="http://www.w3.org/2000/svg" viewBox="0 0 144 144"><defs><style>.e11a022e-28a1-4fef-bad7-650d1be875fa{fill:#231f20;}</style></defs><path class="e11a022e-28a1-4fef-bad7-650d1be875fa" d="M80.64,69.11c2.69-2.33,6.08-1.7,8.37-1.35,3.32.49,7.48.91,10.21-2.09L97.4,61.81a6.9,6.9,0,1,1-7.19-10.43c-6.25-3.07-12,6.13-15.72,14a10,10,0,0,1-.72-2.32c-.67-3.49,1.57-6.11,3-7.92,2.09-2.63,4.53-6,3.29-9.89l-4.24-.35a6.9,6.9,0,1,1-12.64,1c-5.78,3.87-.68,13.43,4.3,20.63a10.33,10.33,0,0,1-2.37-.53c-3.35-1.16-4.5-4.42-5.35-6.57-1.23-3.13-3-6.94-6.91-7.8l-2.43,3.5A6.9,6.9,0,1,1,45,66.63c.46,6.94,11.29,7.31,20,6.6A10.78,10.78,0,0,1,63.36,75c-2.68,2.32-6.08,1.69-8.37,1.35-3.32-.5-7.48-.92-10.21,2.09l1.82,3.86a6.9,6.9,0,1,1,7.19,10.43c6.25,3.07,12-6.13,15.72-14A9.88,9.88,0,0,1,70.23,81c.67,3.48-1.57,6.11-3,7.92-2.09,2.63-4.53,6-3.29,9.88l4.24.36a6.9,6.9,0,1,1,12.64-1c5.78-3.87.68-13.43-4.3-20.63a10.34,10.34,0,0,1,2.37.54c3.35,1.16,4.5,4.41,5.35,6.56,1.23,3.13,3,6.94,6.91,7.8l2.43-3.5A6.9,6.9,0,1,1,99,77.48c-.46-6.94-11.29-7.3-20-6.59A10.4,10.4,0,0,1,80.64,69.11Z"/><path class="e11a022e-28a1-4fef-bad7-650d1be875fa" d="M53.72,62.87a4.44,4.44,0,1,1-4.44-4.44A4.44,4.44,0,0,1,53.72,62.87Z"/><path class="e11a022e-28a1-4fef-bad7-650d1be875fa" d="M54.92,83.22a4.44,4.44,0,1,1-6.06,1.62A4.43,4.43,0,0,1,54.92,83.22Z"/><path class="e11a022e-28a1-4fef-bad7-650d1be875fa" d="M73.15,92.35a4.43,4.43,0,1,1-1.63,6.06A4.43,4.43,0,0,1,73.15,92.35Z"/><path class="e11a022e-28a1-4fef-bad7-650d1be875fa" d="M90.17,81.13a4.44,4.44,0,1,1,4.43,4.44A4.43,4.43,0,0,1,90.17,81.13Z"/><path class="e11a022e-28a1-4fef-bad7-650d1be875fa" d="M89,60.78A4.44,4.44,0,1,1,95,59.16,4.43,4.43,0,0,1,89,60.78Z"/><path class="e11a022e-28a1-4fef-bad7-650d1be875fa" d="M70.74,51.65a4.44,4.44,0,1,1,1.62-6.06A4.43,4.43,0,0,1,70.74,51.65Z"/></svg>