<?xml version="1.0" ?><!-- CC0 license image, svgrepo.com --><!DOCTYPE svg  PUBLIC '-//W3C//DTD SVG 1.1//EN'  'http://www.w3.org/Graphics/SVG/1.1/DTD/svg11.dtd'><svg width="32px" height="32px" viewBox="0 0 32 32" style="fill-rule:evenodd;clip-rule:evenodd;stroke-linejoin:round;stroke-miterlimit:2;" version="1.1" xml:space="preserve" xmlns="http://www.w3.org/2000/svg" xmlns:serif="http://www.serif.com/" xmlns:xlink="http://www.w3.org/1999/xlink"><g transform="matrix(1,0,0,1,-48,-432)"><g transform="matrix(1.25,0,0,1.25,-19.5,-111)"><circle cx="70" cy="448" r="8" style="fill:rgb(144,224,239);"/></g><path d="M67,437L67,438.045C61.397,438.551 57,443.266 57,449C57,455.071 61.929,460 68,460C74.071,460 79,455.071 79,449C79,446.068 77.851,443.403 75.979,441.431L76.474,440.927L77.188,441.652C77.575,442.046 78.208,442.051 78.602,441.665C78.996,441.278 79.001,440.644 78.614,440.25L75.713,437.299C75.326,436.905 74.693,436.9 74.299,437.287C73.905,437.674 73.9,438.307 74.287,438.701L75.072,439.5L74.474,440.108C72.91,438.967 71.034,438.229 69,438.045L69,437L70.103,437C70.655,437 71.103,436.552 71.103,436C71.103,435.448 70.655,435 70.103,435L66,435C65.448,435 65,435.448 65,436C65,436.552 65.448,437 66,437L67,437ZM68,440C72.967,440 77,444.033 77,449C77,453.967 72.967,458 68,458C63.033,458 59,453.967 59,449C59,444.033 63.033,440 68,440ZM67,444L67,449C67,449.334 67.167,449.647 67.445,449.832L70.945,452.165C71.405,452.472 72.026,452.347 72.332,451.888C72.638,451.429 72.514,450.807 72.055,450.501L69,448.465C69,448.465 69,444 69,444C69,443.448 68.552,443 68,443C67.448,443 67,443.448 67,444ZM50,447L54,447C54.552,447 55,446.552 55,446C55,445.448 54.552,445 54,445L50,445C49.448,445 49,445.448 49,446C49,446.552 49.448,447 50,447ZM50,443L56,443C56.552,443 57,442.552 57,442C57,441.448 56.552,441 56,441L50,441C49.448,441 49,441.448 49,442C49,442.552 49.448,443 50,443ZM50,439L60,439C60.552,439 61,438.552 61,438C61,437.448 60.552,437 60,437L50,437C49.448,437 49,437.448 49,438C49,438.552 49.448,439 50,439Z" style="fill:rgb(25,144,167);"/></g></svg>