<?xml version="1.0" encoding="UTF-8"?><svg id="Layer_2" data-name="Layer 2" xmlns="http://www.w3.org/2000/svg" viewBox="0 0 123.87 148.87"> <defs> <style>.cls-1{fill: #1aacfe;}</style> </defs> <g id="M2C2_Image" data-name="M2C2_Image"> <g> <path class="cls-1" d="M20.03,63.91H.01V.35c-.05,.05,.05-.09,.18-.18C.31,.09,.47,0,.62,0,6.92,0,13.22,0,19.7,0V7.87h8.05v7.91h8.05v-7.6h7.87V.16h19.94V63.84h-19.61v-27.69h-4.05v7.73H23.91v-7.77h-3.88v27.81Z"/> <path class="cls-1" d="M73.94,63.83V30.15h5.79v-6.05h23.91v-8.04h-29.59V.09h43.63V5.83c2.06,.1,3.97,.19,6.03,.29v27.77h-5.76v6.05h-23.98v7.88h29.8c.18,2.73,.06,5.33,.08,7.92,.02,2.64,0,5.29,0,8.09h-49.91Z"/> <path class="cls-1" d="M97.68,100.98h-29.67v-15.75h43.74v5.69h5.99v28.04h-5.87v5.87h-23.76v8.04h29.52v16h-49.56v-33.8h5.74v-6.05h23.87v-8.04Z"/> <path class="cls-1" d="M5.93,148.84v-63.67H57.76v15.65H26.57c-.31,.28-.45,.38-.54,.51-.09,.12-.17,.28-.17,.43,0,10.3,0,20.6,0,31.07h31.83c.37,2.72,.12,5.34,.16,7.94,.05,2.64,.01,5.28,.01,8.07H5.93Z"/> </g> </g></svg>
