<?xml version="1.0" encoding="utf-8"?>
<!-- modified CC0 license image, svgrepo.com -->
<!-- Generator: Adobe Illustrator 27.0.0, SVG Export Plug-In . SVG Version: 6.00 Build 0)  -->
<svg version="1.1" xmlns="http://www.w3.org/2000/svg" xmlns:xlink="http://www.w3.org/1999/xlink" x="0px" y="0px"
	 viewBox="0 0 482.2 482.2" style="enable-background:new 0 0 482.2 482.2;" xml:space="preserve">
<style type="text/css">
	.st0{fill:#FF9F43;}
	.st1{fill:#4169E1;}
	.st2{fill:#3ECC5F;}
	.st3{fill:#020202;}
</style>
<g id="Layer_2">
	<rect x="166.3" y="73.5" class="st0" width="257.2" height="175.4"/>
	<rect x="16" y="269.8" class="st1" width="85.5" height="139.7"/>
	<rect x="111.1" y="184.8" class="st2" width="116.6" height="157"/>
	<rect x="160.1" y="245.2" class="st2" width="5.2" height="0"/>
</g>
<g id="Capa_1">
	<g>
		<path class="st3" d="M166.3,75.2l257.2-1.1v174.2l-141.6,0.6v31.3h142.7c17,0,30.9-13.8,30.9-30.9V74.1c0-17-13.8-30.9-30.9-30.9
			H166.3c-17,0-30.9,13.8-30.9,30.9v54.9h31.2L166.3,75.2z"/>
		<path class="st3" d="M472.2,287.6H281.8v36.5h174c14.6,0,26.4-11.8,26.4-26.4C482.2,292.1,477.7,287.6,472.2,287.6z"/>
		<path class="st3" d="M224.7,152.9H112.5c-18.3,0-33.2,14.9-33.2,33.2v46.2h18.2c4.9,0,9.4,1,13.7,2.6v-48.8c0-0.7,0.6-1.3,1.3-1.3
			h112.2c0.7,0,1.3,0.6,1.3,1.3v155.7h-88.5V387h87.2c18.3,0,33.2-14.9,33.2-33.2V186.1C257.9,167.8,243,152.9,224.7,152.9z
			 M168.6,372.4c-4,0-7.5-2.4-9.2-5.8c-0.7-1.4-1.2-3-1.2-4.7c0-5.8,4.7-10.4,10.4-10.4c5.8,0,10.4,4.7,10.4,10.4
			c0,1.7-0.5,3.3-1.2,4.7C176,370,172.6,372.4,168.6,372.4z"/>
		<path class="st3" d="M97.5,252.2H20c-11,0-20,9-20,20V419c0,11,9,20,20,20h77.5c11,0,20-9,20-20V272.2
			C117.5,261.2,108.5,252.2,97.5,252.2z M24,276.2h69.6v126.9H24V276.2z M58.7,429.3c-2.2,0-4.2-0.9-5.7-2.3
			c-1.7-1.5-2.8-3.7-2.8-6.2c0-4.7,3.8-8.4,8.5-8.4c4.6,0,8.4,3.8,8.4,8.4c0,2.5-1.1,4.6-2.8,6.2C62.9,428.4,60.9,429.3,58.7,429.3z
			"/>
	</g>
</g>
</svg>
