<?xml version="1.0" encoding="iso-8859-1"?>
<!-- CC0 license image, svgrepo.com -->
<!-- Generator: Adobe Illustrator 19.0.0, SVG Export Plug-In . SVG Version: 6.00 Build 0)  -->
<svg version="1.1" id="Layer_1" xmlns="http://www.w3.org/2000/svg" xmlns:xlink="http://www.w3.org/1999/xlink" x="0px" y="0px"
	 viewBox="0 0 512 512" style="enable-background:new 0 0 512 512;" xml:space="preserve">
<g>
	<path style="fill:#BFC5CC;" d="M233.683,427.475c-6.254,0-12.247-3.534-15.076-9.57L75.157,112.694
		c-5.917-12.692-18.241-20.782-32.189-21.161l-26.781-0.731c-9.19-0.25-16.441-7.906-16.181-17.096
		c0.239-9.185,7.792-16.436,17.091-16.186l26.781,0.731c26.64,0.726,50.18,16.175,61.43,40.328l143.428,305.173
		c3.912,8.312,0.336,18.23-7.987,22.142C238.462,426.965,236.056,427.475,233.683,427.475z"/>
	<path style="fill:#BFC5CC;" d="M502.385,340.67L271.046,448.545l-14.071-30.174l231.339-107.875
		c8.332-3.885,18.237-0.281,22.123,8.052l0,0C514.322,326.88,510.717,336.785,502.385,340.67z"/>
</g>
<path style="fill:#8A9096;" d="M483.597,392.289L483.597,392.289c-8.332,3.885-18.237,0.281-22.123-8.052l-23.451-50.291
	l30.174-14.071l23.451,50.291C495.534,378.5,491.929,388.404,483.597,392.289z"/>
<path style="fill:#AFB9BF;" d="M488.314,310.496l-110.641,51.592l14.071,30.174l110.641-51.592
	c8.332-3.885,11.937-13.79,8.052-22.123C506.551,310.215,496.646,306.611,488.314,310.496z"/>
<path style="fill:#E79D2E;" d="M290.593,96.562l-120.699,56.282l-30.486-65.378c-3.885-8.332-0.281-18.237,8.052-22.123
	l90.524-42.212c8.332-3.885,18.237-0.281,22.123,8.052L290.593,96.562z"/>
<path style="fill:#D8842A;" d="M237.984,23.132l-15.088,7.035l37.521,80.466l30.174-14.071l-30.486-65.378
	C256.221,22.851,246.316,19.247,237.984,23.132z"/>
<path style="fill:#ECB33D;" d="M362.979,173.015l-150.873,70.354l-51.592-110.641L296.3,69.411
	c8.332-3.885,18.237-0.281,22.123,8.052L362.979,173.015z"/>
<path style="fill:#E09B33;" d="M296.299,69.411l-45.262,21.106l51.592,110.64l60.349-28.141l-44.557-95.553
	C314.537,69.13,304.632,65.525,296.299,69.411z"/>
<path style="fill:#F1C94B;" d="M439.04,296.737L288.167,367.09c-8.332,3.885-18.237,0.281-22.123-8.052l-63.317-135.786
	l165.961-77.389c8.332-3.885,18.237-0.281,22.123,8.052l56.282,120.699C450.977,282.946,447.372,292.851,439.04,296.737z"/>
<path style="fill:#E8B33C;" d="M368.686,145.864l-75.436,35.176l70.354,150.873l75.436-35.176
	c8.332-3.885,11.937-13.79,8.052-22.123l-56.282-120.699C386.923,145.583,377.018,141.978,368.686,145.864z"/>
<path style="fill:#6E6057;" d="M270.029,485.756c-24.959,11.638-54.73,0.803-66.368-24.156
	c-11.638-24.959-0.802-54.73,24.156-66.368c24.959-11.638,54.73-0.802,66.368,24.156
	C305.824,444.347,294.987,474.117,270.029,485.756z"/>
<path style="fill:#615349;" d="M294.185,419.388c-11.638-24.959-41.409-35.794-66.368-24.156l42.212,90.524
	C294.987,474.117,305.824,444.347,294.185,419.388z"/>
<path style="fill:#DBE9FD;" d="M241.888,425.406c-8.32,3.88-11.931,13.803-8.052,22.123s13.803,11.931,22.123,8.052
	c8.32-3.88,11.931-13.803,8.052-22.123C260.131,425.138,250.207,421.527,241.888,425.406z"/>
<path style="fill:#C5DCFD;" d="M264.011,433.459c-3.88-8.319-13.803-11.931-22.123-8.052l14.071,30.174
	C264.278,451.702,267.889,441.778,264.011,433.459z"/>
<g>
</g>
<g>
</g>
<g>
</g>
<g>
</g>
<g>
</g>
<g>
</g>
<g>
</g>
<g>
</g>
<g>
</g>
<g>
</g>
<g>
</g>
<g>
</g>
<g>
</g>
<g>
</g>
<g>
</g>
</svg>
