<svg id="ad9d3fdc-8114-470a-b3a3-8eca8c7121fa" data-name="Layer 1" xmlns="http://www.w3.org/2000/svg" viewBox="0 0 144 144"><path d="M96.05,65.58a1.4,1.4,0,0,0,0-2.79,25.22,25.22,0,0,0-18.39,8,34.49,34.49,0,0,0-3.22-4.54,30.65,30.65,0,0,1,21.61-8.89,1.39,1.39,0,1,0,0-2.78,33.43,33.43,0,0,0-23.49,9.62A33.86,33.86,0,0,0,48.42,54.07a1.86,1.86,0,1,0,0,3.71A30.23,30.23,0,0,1,70.06,66.9a33.14,33.14,0,0,0-2.68,3.78,25.69,25.69,0,0,0-19-8.35,1.86,1.86,0,1,0,0,3.71,22,22,0,0,1,17.1,8.16,34.54,34.54,0,0,0-1.93,5.39,17.38,17.38,0,0,0-15.17-8.91,1.86,1.86,0,1,0,0,3.71A13.7,13.7,0,0,1,62.1,88.07a1.86,1.86,0,1,0,3.71,0,17.83,17.83,0,0,0-.33-3.37,30.41,30.41,0,0,1,1.92-7.8,21.87,21.87,0,0,1,3,11.17,1.86,1.86,0,1,0,3.71,0,25.35,25.35,0,0,0-.28-3.82,22,22,0,0,1,2.67-7.38,30,30,0,0,1,2.16,11.2,1.86,1.86,0,1,0,3.71,0c0-1.07-.06-2.13-.15-3.18a14.16,14.16,0,0,1,13.78-11,1.39,1.39,0,0,0,0-2.78,17,17,0,0,0-14.69,8.51,33.57,33.57,0,0,0-2.3-6.32A22.46,22.46,0,0,1,96.05,65.58ZM72.48,78.93A25.44,25.44,0,0,0,69.26,73a30.78,30.78,0,0,1,2.68-4,29.66,29.66,0,0,1,3.21,4.84A25.62,25.62,0,0,0,72.48,78.93Z"/></svg>