<svg id="b1deaeb7-3f0f-4f08-b599-641915457870" data-name="Layer 1" xmlns="http://www.w3.org/2000/svg" viewBox="0 0 144 144"><defs><style>.f70baf70-abd1-447c-8261-570ba9eb286f{fill:#231f20;}</style></defs><path class="f70baf70-abd1-447c-8261-570ba9eb286f" d="M70.55,81.8c.16-1.74.23-4.64.19-6.38q-4.9,8.42-14.8,26.19C58.7,98.22,63.59,91.61,70.55,81.8Z"/><path class="f70baf70-abd1-447c-8261-570ba9eb286f" d="M70.7,75.45a59.1,59.1,0,0,0-6,2.2c-7,9.84-11.61,16.57-14,20.31Q64.4,82.78,70.7,75.45Z"/><path class="f70baf70-abd1-447c-8261-570ba9eb286f" d="M78.85,77.85c-1.61-.69-4.35-1.66-6-2.15,4.33,4.84,11.08,12.21,20.33,22.17Q89.62,92.35,78.85,77.85Z"/><path class="f70baf70-abd1-447c-8261-570ba9eb286f" d="M72.85,75.74a58.55,58.55,0,0,0,.26,6.34c7.2,9.68,12.16,16.16,15,19.55Q77.87,84,72.85,75.74Z"/><path class="f70baf70-abd1-447c-8261-570ba9eb286f" d="M77.65,68.73c-1.15,1.32-2.92,3.62-3.9,5,5.94-2.62,15-6.76,27.37-12.49Q94.76,63,77.65,68.73Z"/><path class="f70baf70-abd1-447c-8261-570ba9eb286f" d="M73.8,73.78a59.15,59.15,0,0,0,6.1,1.72c11.43-3.85,19.13-6.58,23.23-8.23C89.85,70.13,80.05,72.28,73.8,73.78Z"/><path class="f70baf70-abd1-447c-8261-570ba9eb286f" d="M68.6,67.05c.91,1.5,2.55,3.9,3.61,5.27-.66-6.46-1.78-16.39-3.42-29.88C68.55,46.81,68.48,55,68.6,67.05Z"/><path class="f70baf70-abd1-447c-8261-570ba9eb286f" d="M72.23,72.27A58.1,58.1,0,0,0,75.74,67c-.13-12.06-.34-20.22-.64-24.63C73.71,55.89,72.73,65.87,72.23,72.27Z"/><path class="f70baf70-abd1-447c-8261-570ba9eb286f" d="M64.22,75.14c1.71-.39,4.49-1.22,6.13-1.8C64,72,54.2,70,40.87,67.35Q47,69.72,64.22,75.14Z"/><path class="f70baf70-abd1-447c-8261-570ba9eb286f" d="M70.31,73.3a59.78,59.78,0,0,0-3.93-5c-11.51-3.61-19.34-5.93-23.63-7Q61.4,69.58,70.31,73.3Z"/></svg>