<svg id="a516d461-0872-49ec-b1e1-e6b0c31f5fbf" data-name="Layer 1" xmlns="http://www.w3.org/2000/svg" viewBox="0 0 144 144"><defs><style>.a467d7f9-b55d-4ec6-9151-39cba592a5cb{fill:#231f20;}</style></defs><path class="a467d7f9-b55d-4ec6-9151-39cba592a5cb" d="M59.54,58.16a12,12,0,0,0,4,16.42,1.88,1.88,0,0,0,2-3.21,8.2,8.2,0,1,1,8.51-14A1.88,1.88,0,0,0,76,54.13,12,12,0,0,0,59.54,58.16Z"/><path class="a467d7f9-b55d-4ec6-9151-39cba592a5cb" d="M53.69,67.88a12,12,0,0,0,4,16.42,12,12,0,0,0,16.42-4,1.88,1.88,0,1,0-3.21-2,8.2,8.2,0,1,1-14-8.51,1.88,1.88,0,0,0-3.22-1.94Z"/><path class="a467d7f9-b55d-4ec6-9151-39cba592a5cb" d="M77.86,70.23a1.88,1.88,0,0,0,.63,2.58,8.2,8.2,0,0,1,2.76,11.26A8.21,8.21,0,0,1,70,86.83,1.88,1.88,0,1,0,68,90,12,12,0,0,0,85.85,77a11.85,11.85,0,0,0-5.41-7.37A1.87,1.87,0,0,0,77.86,70.23Z"/><path class="a467d7f9-b55d-4ec6-9151-39cba592a5cb" d="M51.31,58.48a4.64,4.64,0,1,0-1.56-6.37A4.65,4.65,0,0,0,51.31,58.48Z"/><path class="a467d7f9-b55d-4ec6-9151-39cba592a5cb" d="M56.48,86.16A4.63,4.63,0,1,0,58.58,89,4.6,4.6,0,0,0,56.48,86.16Z"/><path class="a467d7f9-b55d-4ec6-9151-39cba592a5cb" d="M94.78,88.56a4.57,4.57,0,0,0-2.09-2.86,4.64,4.64,0,1,0,1.56,6.37A4.6,4.6,0,0,0,94.78,88.56Z"/><path class="a467d7f9-b55d-4ec6-9151-39cba592a5cb" d="M87.6,57.84a4.64,4.64,0,0,0,6.91-5.07A4.64,4.64,0,0,0,86,51.47a4.63,4.63,0,0,0,1.56,6.37Z"/><path class="a467d7f9-b55d-4ec6-9151-39cba592a5cb" d="M69.86,63.86a1.88,1.88,0,0,0,3.22,2,8.2,8.2,0,1,1,14,8.51,1.88,1.88,0,0,0,3.22,2A12,12,0,0,0,69.86,63.86Z"/></svg>