<svg id="a49d2833-0455-43ab-ace8-211da420baba" data-name="Layer 1" xmlns="http://www.w3.org/2000/svg" viewBox="0 0 144 144"><defs><style>.ea878e5a-7d9f-489e-b955-c6a5539de6bf{fill:#231f20;fill-rule:evenodd;}</style></defs><path class="ea878e5a-7d9f-489e-b955-c6a5539de6bf" d="M94.17,66.06A24.94,24.94,0,0,0,92.48,54c5.15,5.39,2.36,13.46,2.36,13.46s-.45-.85-.67-1.39Z"/><path class="ea878e5a-7d9f-489e-b955-c6a5539de6bf" d="M92.05,58.28s-3.5,8.78,5.67,14.16c0,0-5.79-6.46-5.67-14.16Z"/><path class="ea878e5a-7d9f-489e-b955-c6a5539de6bf" d="M93.16,68.89c-2,5,2.87,10.27,2.87,10.27-1.14-1.67-3-6-2-9.21,0,0-.5-.57-.84-1.06Z"/><path class="ea878e5a-7d9f-489e-b955-c6a5539de6bf" d="M85.83,74.4a25,25,0,0,1-12.07-1.68c5.38,5.15,13.45,2.36,13.45,2.36s-.85-.45-1.38-.68Z"/><path class="ea878e5a-7d9f-489e-b955-c6a5539de6bf" d="M78,72.29S86.82,68.8,92.21,78c0,0-6.47-5.78-14.17-5.66Z"/><path class="ea878e5a-7d9f-489e-b955-c6a5539de6bf" d="M88.66,73.4c5-2,10.26,2.88,10.26,2.88-1.66-1.16-6-3-9.2-2a11.93,11.93,0,0,0-1.06-.84Z"/><path class="ea878e5a-7d9f-489e-b955-c6a5539de6bf" d="M77.94,49.83a25.07,25.07,0,0,0-11.3-4.57c7.25-1.76,12.84,4.68,12.84,4.68s-1,0-1.54-.11Z"/><path class="ea878e5a-7d9f-489e-b955-c6a5539de6bf" d="M70.14,47.77S76,55.19,85.24,50c0,0-8.49,1.78-15.1-2.18Z"/><path class="ea878e5a-7d9f-489e-b955-c6a5539de6bf" d="M79.89,52.12c3.29,4.23,10.33,2.65,10.33,2.65-2,.16-6.65-.38-9-2.85,0,0-.74.15-1.33.2Z"/><path class="ea878e5a-7d9f-489e-b955-c6a5539de6bf" d="M81,61.23a24.91,24.91,0,0,1-7.49,9.6c7.15-2.08,8.77-10.46,8.77-10.46s-.81.51-1.28.86Z"/><path class="ea878e5a-7d9f-489e-b955-c6a5539de6bf" d="M75.27,66.92s1.37-9.35,12-9.45c0,0-8.24,2.71-12,9.45Z"/><path class="ea878e5a-7d9f-489e-b955-c6a5539de6bf" d="M81.54,58.27c.72-5.3,7.63-7.44,7.63-7.44-1.84.85-5.58,3.64-6.37,6.94,0,0-.73.25-1.26.5Z"/><path class="ea878e5a-7d9f-489e-b955-c6a5539de6bf" d="M55.78,55.77a24.87,24.87,0,0,0-9.61,7.5c2.09-7.16,10.47-8.78,10.47-8.78s-.51.82-.86,1.28Z"/><path class="ea878e5a-7d9f-489e-b955-c6a5539de6bf" d="M50.09,61.5s9.35-1.36,9.43-12c0,0-2.7,8.24-9.43,12Z"/><path class="ea878e5a-7d9f-489e-b955-c6a5539de6bf" d="M58.73,55.23c5.31-.73,7.46-7.62,7.46-7.62-.88,1.82-3.66,5.57-7,6.36,0,0-.24.72-.49,1.26Z"/><path class="ea878e5a-7d9f-489e-b955-c6a5539de6bf" d="M67.17,58.83a24.91,24.91,0,0,1,4.57,11.29c1.77-7.24-4.68-12.83-4.68-12.83s0,1,.11,1.54Z"/><path class="ea878e5a-7d9f-489e-b955-c6a5539de6bf" d="M69.24,66.63s-7.42-5.86-2.19-15.1c0,0-1.78,8.48,2.19,15.1Z"/><path class="ea878e5a-7d9f-489e-b955-c6a5539de6bf" d="M64.88,56.87c-4.23-3.28-2.63-10.33-2.63-10.33-.18,2,.36,6.66,2.83,9,0,0-.15.75-.2,1.33Z"/><path class="ea878e5a-7d9f-489e-b955-c6a5539de6bf" d="M49.83,77.93A25,25,0,0,0,51.52,90c-5.15-5.39-2.36-13.46-2.36-13.46s.45.85.67,1.38Z"/><path class="ea878e5a-7d9f-489e-b955-c6a5539de6bf" d="M52,85.73s3.5-8.79-5.67-14.17c0,0,5.79,6.46,5.67,14.17Z"/><path class="ea878e5a-7d9f-489e-b955-c6a5539de6bf" d="M50.84,75.11c2-5-2.87-10.27-2.87-10.27,1.14,1.67,3,6,2,9.21,0,0,.5.57.84,1.06Z"/><path class="ea878e5a-7d9f-489e-b955-c6a5539de6bf" d="M58.17,69.6a25,25,0,0,1,12.07,1.68c-5.38-5.15-13.45-2.36-13.45-2.36s.85.45,1.38.68Z"/><path class="ea878e5a-7d9f-489e-b955-c6a5539de6bf" d="M66,71.71s-8.78,3.49-14.17-5.66c0,0,6.47,5.78,14.17,5.66Z"/><path class="ea878e5a-7d9f-489e-b955-c6a5539de6bf" d="M55.34,70.6c-5,2-10.26-2.88-10.26-2.88,1.66,1.16,6,3,9.2,2a11.93,11.93,0,0,0,1.06.84Z"/><path class="ea878e5a-7d9f-489e-b955-c6a5539de6bf" d="M66.06,94.17a25.06,25.06,0,0,0,11.29,4.57c-7.24,1.76-12.83-4.68-12.83-4.68s1,0,1.54.11Z"/><path class="ea878e5a-7d9f-489e-b955-c6a5539de6bf" d="M73.86,96.23S68,88.81,58.76,94.05c0,0,8.49-1.78,15.1,2.18Z"/><path class="ea878e5a-7d9f-489e-b955-c6a5539de6bf" d="M64.11,91.88c-3.29-4.23-10.33-2.65-10.33-2.65,2-.16,6.65.38,9,2.85,0,0,.74-.15,1.33-.2Z"/><path class="ea878e5a-7d9f-489e-b955-c6a5539de6bf" d="M63,82.77a24.91,24.91,0,0,1,7.49-9.6c-7.15,2.08-8.77,10.46-8.77,10.46s.81-.51,1.28-.86Z"/><path class="ea878e5a-7d9f-489e-b955-c6a5539de6bf" d="M68.73,77.08s-1.37,9.35-12,9.45c0,0,8.24-2.71,12-9.45Z"/><path class="ea878e5a-7d9f-489e-b955-c6a5539de6bf" d="M62.46,85.73c-.72,5.3-7.63,7.44-7.63,7.44,1.84-.85,5.58-3.64,6.37-7a13.34,13.34,0,0,0,1.26-.49Z"/><path class="ea878e5a-7d9f-489e-b955-c6a5539de6bf" d="M88.22,88.23a24.87,24.87,0,0,0,9.61-7.5c-2.09,7.16-10.47,8.78-10.47,8.78s.51-.82.86-1.28Z"/><path class="ea878e5a-7d9f-489e-b955-c6a5539de6bf" d="M93.91,82.5s-9.35,1.36-9.43,12c0,0,2.7-8.24,9.43-12Z"/><path class="ea878e5a-7d9f-489e-b955-c6a5539de6bf" d="M85.27,88.77c-5.31.73-7.46,7.62-7.46,7.62.88-1.83,3.66-5.57,7-6.37,0,0,.24-.71.49-1.25Z"/><path class="ea878e5a-7d9f-489e-b955-c6a5539de6bf" d="M76.83,85.17a24.91,24.91,0,0,1-4.57-11.29c-1.77,7.24,4.68,12.83,4.68,12.83s0-1-.11-1.54Z"/><path class="ea878e5a-7d9f-489e-b955-c6a5539de6bf" d="M74.76,77.37s7.42,5.86,2.19,15.1c0,0,1.77-8.48-2.19-15.1Z"/><path class="ea878e5a-7d9f-489e-b955-c6a5539de6bf" d="M79.12,87.12c4.23,3.29,2.63,10.33,2.63,10.33.18-2-.36-6.65-2.83-9,0,0,.15-.74.2-1.34Z"/></svg>