<svg id="a1f745e0-4113-443a-8bc5-57b0c7be9aa5" data-name="Layer 1" xmlns="http://www.w3.org/2000/svg" viewBox="0 0 144 144"><defs><style>.abbff844-a2e9-48b3-af37-c1ad69716bd6{fill:#231f20;}</style></defs><path class="abbff844-a2e9-48b3-af37-c1ad69716bd6" d="M64.09,75.75l1.45,4.79-3.19,1L64,87.11a4,4,0,1,0-.53,7.45,4,4,0,0,0,2.26-1.75v0l4.62-1.4L69,86.65l3.2-1L68.72,74.35Z"/><path class="abbff844-a2e9-48b3-af37-c1ad69716bd6" d="M72.25,82.18l5,.1-.07,3.34,5.86.12A4,4,0,0,0,82,88.38a4,4,0,1,0,7-2.52h0l.1-4.84-5-.1.06-3.33-11.83-.24Z"/><path class="abbff844-a2e9-48b3-af37-c1ad69716bd6" d="M80.89,76.41l1.64-4.73,3.15,1.1,1.92-5.53a4,4,0,1,0,4.82-5.72,4,4,0,0,0-2.86.09v0L85,60l-1.64,4.72-3.15-1.09L76.32,74.82Z"/><path class="abbff844-a2e9-48b3-af37-c1ad69716bd6" d="M78.07,66.41l-4-3,2-2.66-4.67-3.54a4,4,0,1,0-4.75-3.6h0l-2.92,3.85,4,3-2,2.66,9.44,7.15Z"/><path class="abbff844-a2e9-48b3-af37-c1ad69716bd6" d="M67.69,66l-4.11,2.86-1.91-2.74-4.8,3.35a4,4,0,1,0-4.9,3.4h0l2.76,4L58.83,74l1.9,2.74L70.45,70Z"/></svg>