<svg id="f515d8a9-3338-48e6-b8b3-9d6989e94720" data-name="Layer 1" xmlns="http://www.w3.org/2000/svg" viewBox="0 0 144 144"><defs><style>.e5d283d6-e0a8-45bb-93e7-f4fc06bdbcd8{fill:#231f20;}</style></defs><path class="e5d283d6-e0a8-45bb-93e7-f4fc06bdbcd8" d="M63.17,82.39a25.64,25.64,0,0,1,1.37-8,9.35,9.35,0,0,0-1.94-1,23.3,23.3,0,0,0,.66,11C63.21,83.67,63.17,83,63.17,82.39Z"/><path class="e5d283d6-e0a8-45bb-93e7-f4fc06bdbcd8" d="M69.64,63.86a20.19,20.19,0,0,0-8.78,3.61,21.46,21.46,0,0,1,8.47-1.24A9.94,9.94,0,0,0,69.64,63.86Z"/><path class="e5d283d6-e0a8-45bb-93e7-f4fc06bdbcd8" d="M80.73,68.3a21.28,21.28,0,0,0-7.2-8.88,24.67,24.67,0,0,1,4.8,9.34A8.94,8.94,0,0,0,80.73,68.3Z"/><path class="e5d283d6-e0a8-45bb-93e7-f4fc06bdbcd8" d="M68.89,83.76a19.62,19.62,0,0,0,10,2.69,22.85,22.85,0,0,1-8.38-4.52A9.35,9.35,0,0,0,68.89,83.76Z"/><path class="e5d283d6-e0a8-45bb-93e7-f4fc06bdbcd8" d="M74.65,88.92a10.94,10.94,0,0,1-6-4.77,12.35,12.35,0,0,0-1.75,6.11,16.58,16.58,0,0,0,4,2.92c6.16,3.19,12.51,2,16.61.32l.71-8C84.27,89.46,80,90.61,74.65,88.92Z"/><path class="e5d283d6-e0a8-45bb-93e7-f4fc06bdbcd8" d="M94.54,64.68l-6.91-3.19c2.3,5.27,2,10-1.16,14.84a11,11,0,0,1-6.09,4.61A11.6,11.6,0,0,0,85,84.72a16.27,16.27,0,0,0,4.08-3.3C93.88,76.16,94.79,69.36,94.54,64.68Z"/><path class="e5d283d6-e0a8-45bb-93e7-f4fc06bdbcd8" d="M59.77,80.83a12,12,0,0,1,2.46-7.63,10.35,10.35,0,0,0-5.83-.29,17.73,17.73,0,0,0-1.58,5.47,23.2,23.2,0,0,0,4.84,16.94L67,93.56C62.25,90.75,59.9,86.75,59.77,80.83Z"/><path class="e5d283d6-e0a8-45bb-93e7-f4fc06bdbcd8" d="M78.88,60.46a12.08,12.08,0,0,1,2.22,7.71,10.91,10.91,0,0,0,4.81-3.79,17.69,17.69,0,0,0-1.67-5A21.06,21.06,0,0,0,71,48.68l-5,6C71.41,54,75.51,55.76,78.88,60.46Z"/><path class="e5d283d6-e0a8-45bb-93e7-f4fc06bdbcd8" d="M79,78.41a11.13,11.13,0,0,0,1.09,2.15,22.29,22.29,0,0,0,5.45-9.2A22.25,22.25,0,0,1,79,78.41Z"/><path class="e5d283d6-e0a8-45bb-93e7-f4fc06bdbcd8" d="M62.38,63.25a10.26,10.26,0,0,1,7.24,0,12.85,12.85,0,0,0-1.88-6,15.73,15.73,0,0,0-4.7.18C56.3,58.74,51.8,63.68,49.42,67.62l3.83,6.9C54.3,68.83,57.14,65.21,62.38,63.25Z"/><path class="e5d283d6-e0a8-45bb-93e7-f4fc06bdbcd8" d="M73.32,79.9A4.31,4.31,0,0,1,71,78a4.86,4.86,0,0,0-.69,2.41,6.19,6.19,0,0,0,1.59,1.15,7.75,7.75,0,0,0,6.54.13l.28-3.15A4.87,4.87,0,0,1,73.32,79.9Z"/><path class="e5d283d6-e0a8-45bb-93e7-f4fc06bdbcd8" d="M81.16,70.35,78.44,69.1A5.73,5.73,0,0,1,78,74.94a4.31,4.31,0,0,1-2.4,1.82,4.52,4.52,0,0,0,1.84,1.49A6.49,6.49,0,0,0,79,77,9.11,9.11,0,0,0,81.16,70.35Z"/><path class="e5d283d6-e0a8-45bb-93e7-f4fc06bdbcd8" d="M67.46,76.72a4.72,4.72,0,0,1,1-3,4.15,4.15,0,0,0-2.3-.12,6.91,6.91,0,0,0-.62,2.16,9.1,9.1,0,0,0,1.91,6.67l2.89-.69A5.48,5.48,0,0,1,67.46,76.72Z"/><path class="e5d283d6-e0a8-45bb-93e7-f4fc06bdbcd8" d="M75,68.69a4.75,4.75,0,0,1,.87,3,4.36,4.36,0,0,0,1.9-1.49,7,7,0,0,0-.66-2,8.27,8.27,0,0,0-5.22-4.2l-2,2.37A5,5,0,0,1,75,68.69Z"/><path class="e5d283d6-e0a8-45bb-93e7-f4fc06bdbcd8" d="M68.49,69.79a4.05,4.05,0,0,1,2.85,0,5.05,5.05,0,0,0-.74-2.34,6.15,6.15,0,0,0-1.85.07,8.29,8.29,0,0,0-5.37,4l1.51,2.72A5.33,5.33,0,0,1,68.49,69.79Z"/></svg>