<svg id="a4c0eb95-b801-471a-b4e0-edbd3cfebeaf" data-name="Layer 1" xmlns="http://www.w3.org/2000/svg" viewBox="0 0 144 144"><defs><style>.a6c84f7f-4ce5-43db-90c1-d341425ba6c8{fill:#231f20;fill-rule:evenodd;}</style></defs><path class="a6c84f7f-4ce5-43db-90c1-d341425ba6c8" d="M73.22,68.94c-5.29-1.41-8.49-5.44-8-10.62a11.36,11.36,0,0,1,15.27-9.4,14.4,14.4,0,0,1,4.38,2.67L87,49.48A16.13,16.13,0,0,0,81.8,47.3c-8.27-1.89-16.49,3.49-17.22,11-.52,5.47,3,10.65,8.51,13.46"/><path class="a6c84f7f-4ce5-43db-90c1-d341425ba6c8" d="M65.44,56.05a29.34,29.34,0,0,0-7.56,12.06A31.44,31.44,0,0,1,66.2,53.63Z"/><path class="a6c84f7f-4ce5-43db-90c1-d341425ba6c8" d="M70,69.42C66.09,73.29,61,74.05,56.76,71a11.35,11.35,0,0,1-.5-17.92,14,14,0,0,1,4.5-2.45L60,47.78a16.14,16.14,0,0,0-4.47,3.38c-5.77,6.21-5.23,16,.91,20.41,4.48,3.19,10.72,2.73,15.91-.64"/><path class="a6c84f7f-4ce5-43db-90c1-d341425ba6c8" d="M54.91,69.7a29.36,29.36,0,0,0,6.66,12.58,31.39,31.39,0,0,1-8.38-14.44Z"/><path class="a6c84f7f-4ce5-43db-90c1-d341425ba6c8" d="M68.75,72.48c1.42,5.28-.47,10.07-5.21,12.23a11.35,11.35,0,0,1-15.77-8.52,14.06,14.06,0,0,1,.13-5.13L45,70.3a16.1,16.1,0,0,0,.69,5.56C48.2,84,57,88.41,63.84,85.28c5-2.28,7.72-7.92,7.4-14.1"/><path class="a6c84f7f-4ce5-43db-90c1-d341425ba6c8" d="M61.46,85.66a29.59,29.59,0,0,0,14.23.52,31.45,31.45,0,0,1-16.7,0Z"/><path class="a6c84f7f-4ce5-43db-90c1-d341425ba6c8" d="M70.78,75.06c5.29,1.41,8.49,5.44,8,10.62a11.35,11.35,0,0,1-15.27,9.4,14.24,14.24,0,0,1-4.38-2.68L57,94.51A16.15,16.15,0,0,0,62.2,96.7c8.27,1.89,16.5-3.49,17.22-11,.52-5.47-3-10.65-8.51-13.46"/><path class="a6c84f7f-4ce5-43db-90c1-d341425ba6c8" d="M78.56,88a29.34,29.34,0,0,0,7.56-12.06A31.44,31.44,0,0,1,77.8,90.37Z"/><path class="a6c84f7f-4ce5-43db-90c1-d341425ba6c8" d="M74,74.58C77.91,70.71,83,70,87.24,73a11.35,11.35,0,0,1,.5,17.92,14,14,0,0,1-4.5,2.45L84,96.21a15.91,15.91,0,0,0,4.47-3.37c5.77-6.21,5.23-16-.91-20.41-4.48-3.19-10.72-2.73-15.91.64"/><path class="a6c84f7f-4ce5-43db-90c1-d341425ba6c8" d="M89.09,74.3a29.36,29.36,0,0,0-6.66-12.58,31.39,31.39,0,0,1,8.38,14.44Z"/><path class="a6c84f7f-4ce5-43db-90c1-d341425ba6c8" d="M75.25,71.52c-1.42-5.28.47-10.07,5.21-12.23a11.35,11.35,0,0,1,15.77,8.52,14.05,14.05,0,0,1-.13,5.13L99,73.7a16.34,16.34,0,0,0-.69-5.56C95.8,60,87,55.59,80.16,58.72c-5,2.28-7.72,7.91-7.4,14.09"/><path class="a6c84f7f-4ce5-43db-90c1-d341425ba6c8" d="M82.54,58.34a29.47,29.47,0,0,0-14.23-.52,31.45,31.45,0,0,1,16.7,0Z"/></svg>