<svg id="b0b74511-1b77-40a2-98d7-6f73146a4dc4" data-name="Layer 1" xmlns="http://www.w3.org/2000/svg" viewBox="0 0 144 144"><defs><style>.b17f66df-9f27-4673-968d-aa0e058319ac{fill:#231f20;}</style></defs><path class="b17f66df-9f27-4673-968d-aa0e058319ac" d="M74.61,74.82v0l.87-2.51.3-.89-.93-.32c-.31-.09-.63-.22-1-.32l-2.51-.86c-.63-.21-1.29-.45-2-.7l-.86,2.5-.32.92.89.31c.32.09.64.22,1,.32l2.5.86c.65.22,1.32.46,2,.72Z"/><path class="b17f66df-9f27-4673-968d-aa0e058319ac" d="M75.7,55.65c-2.79,1.41-5.31,2.86-7.21,5.39a14.06,14.06,0,0,0,3.15,1.56,14.49,14.49,0,0,1,6.25-4.72c4-1.67,7.46-1.4,8.59-.38.45.42.88,1.25.88,3.22v9.4a20.17,20.17,0,0,1,2.43,3.56V60c0-2.4-.31-4.8-3.77-5.6A14.72,14.72,0,0,0,75.7,55.65Z"/><path class="b17f66df-9f27-4673-968d-aa0e058319ac" d="M72.37,81.42a14.27,14.27,0,0,1-6.22,4.67c-4,1.67-7.46,1.43-8.58.41-.45-.42-.89-1.25-.89-3.22V73.89a20.34,20.34,0,0,1-2.43-3.56V84c0,2.4.31,4.8,3.78,5.6a14.72,14.72,0,0,0,10.32-1.28C71.12,87,73.62,85.5,75.51,83A13.79,13.79,0,0,0,72.37,81.42Z"/><path class="b17f66df-9f27-4673-968d-aa0e058319ac" d="M77.23,70.26c-.31.79-.6,1.59-.85,2.34l-.86,2.51c-.1.36-.23.68-.33,1a6.45,6.45,0,0,1-.21.62,15.45,15.45,0,0,1,3.09,1.73q.17-.42.3-.84c.1-.31.22-.63.32-1l.86-2.51c.23-.67.47-1.39.73-2.11A16.69,16.69,0,0,0,77.23,70.26Z"/><path class="b17f66df-9f27-4673-968d-aa0e058319ac" d="M80.45,74.41h0l-.86,2.49c-.06.21-.12.41-.19.6a11.1,11.1,0,0,1,3.45,5.2c.15.75-.11,1.15-.45,1.27s-.83.19-1.9-1.47a14.24,14.24,0,0,0-2.72-3.08A16.73,16.73,0,0,0,73.15,77a17.8,17.8,0,0,1-1.73,3.07,16.68,16.68,0,0,1,5,2.41c.53.45,1,1,1.4,1.37,1.74,1.57,3.79,1.68,5.24.6,1-.74,2.21-2.59,1-5.8a11.47,11.47,0,0,0-3.45-4.49Z"/><path class="b17f66df-9f27-4673-968d-aa0e058319ac" d="M54.37,58a14.72,14.72,0,0,0,1.28,10.32c2.33,4.58,6,8.46,10.57,10a13.51,13.51,0,0,0,1.72-3.11h-.06a16.36,16.36,0,0,1-10-9c-1.67-4-1.4-7.46-.37-8.58.4-.45,1.23-.89,3.21-.89h9.4a20.17,20.17,0,0,1,3.56-2.43H60C57.57,54.24,55.17,54.55,54.37,58Z"/><path class="b17f66df-9f27-4673-968d-aa0e058319ac" d="M65.66,66.38c-.09.32-.22.64-.32,1l-.86,2.5c-.2.59-.41,1.22-.63,1.85,0,.11-.08.21-.11.31a16,16,0,0,0,3,1.73,2.88,2.88,0,0,0,.13-.31c.27-.7.52-1.4.74-2.07l.86-2.5c.11-.37.23-.68.33-1s.12-.39.19-.58a15.55,15.55,0,0,1-3.09-1.72C65.84,65.85,65.75,66.12,65.66,66.38Z"/><path class="b17f66df-9f27-4673-968d-aa0e058319ac" d="M69.09,74.9A15.73,15.73,0,0,1,66.86,79a11.29,11.29,0,0,1-5.55,3.83c-.74.15-1.15-.11-1.26-.44s-.2-.83,1.47-1.91A13.33,13.33,0,0,0,64,78.44a19.37,19.37,0,0,1-2.83-1.64c-.35.36-.69.67-1,1-1.58,1.74-1.69,3.78-.61,5.24.75,1,2.59,2.21,5.81,1s5.88-4.57,7.26-8.23c.07-.19.13-.39.2-.58L72.33,75h0l-2.49-.86L69.42,74Z"/><path class="b17f66df-9f27-4673-968d-aa0e058319ac" d="M78.65,60h0c-3,1.18-5.77,4.44-7.17,8-.11.28-.21.55-.3.83l.47.16h0l2.49.86.45.14.33-.89A15.81,15.81,0,0,1,77.18,65a11.17,11.17,0,0,1,5.54-3.83h0c.74-.15,1.15.11,1.26.45s.2.83-1.47,1.9A14.4,14.4,0,0,0,80,65.58a21.36,21.36,0,0,1,2.83,1.64c.35-.37.72-.69,1-1,1.58-1.73,1.69-3.78.61-5.23C83.72,60,81.87,58.75,78.65,60Z"/><path class="b17f66df-9f27-4673-968d-aa0e058319ac" d="M76.09,68.83h0a16.44,16.44,0,0,1,10.05,9c1.66,4,1.37,7.46.34,8.58-.4.45-1.23.89-3.21.89H73.9a20.17,20.17,0,0,1-3.56,2.43H84c2.4,0,4.8-.31,5.6-3.77a14.74,14.74,0,0,0-1.28-10.33c-2.32-4.57-6-8.44-10.55-10A13.59,13.59,0,0,0,76.09,68.83Z"/><path class="b17f66df-9f27-4673-968d-aa0e058319ac" d="M61,59.56c-1,.75-2.21,2.6-1,5.81h0a11.51,11.51,0,0,0,3.49,4.52c.06-.17.1-.29.1-.3h0l.86-2.49c.06-.2.12-.39.18-.56a11,11,0,0,1-3.48-5.23h0c-.14-.75.12-1.16.45-1.27s.83-.19,1.91,1.47a13.72,13.72,0,0,0,2.72,3.08A16.8,16.8,0,0,0,70.87,67,18.13,18.13,0,0,1,72.59,64a16.94,16.94,0,0,1-5-2.42c-.54-.46-1-1-1.41-1.37C64.45,58.6,62.4,58.48,61,59.56Z"/></svg>