<svg id="a9155e84-461c-485b-be19-555b0dac59e6" data-name="Layer 1" xmlns="http://www.w3.org/2000/svg" viewBox="0 0 144 144"><defs><style>.f71c6238-e39e-4857-84e4-b358caf1c98c{fill:#231f20;fill-rule:evenodd;}</style></defs><path class="f71c6238-e39e-4857-84e4-b358caf1c98c" d="M90,62.59a25.71,25.71,0,0,0,12.42-1.73c-5.54,5.3-13.84,2.43-13.84,2.43s.87-.46,1.42-.7Z"/><path class="f71c6238-e39e-4857-84e4-b358caf1c98c" d="M83.12,66.72s-4.26,7.09-10.4,4.83c0,0,6.45-.88,10.4-4.83Z"/><path class="f71c6238-e39e-4857-84e4-b358caf1c98c" d="M98,60.42s-9-3.59-14.58,5.82c0,0,6.65-5.94,14.58-5.82Z"/><path class="f71c6238-e39e-4857-84e4-b358caf1c98c" d="M87.07,61.56c-5.1-2.08-10.56,3-10.56,3,1.72-1.2,6.12-3.1,9.47-2.11,0,0,.59-.51,1.09-.86Z"/><path class="f71c6238-e39e-4857-84e4-b358caf1c98c" d="M81.41,54A25.71,25.71,0,0,1,83.14,41.6c-5.29,5.54-2.43,13.84-2.43,13.84s.46-.87.7-1.42Z"/><path class="f71c6238-e39e-4857-84e4-b358caf1c98c" d="M77.28,60.88s-7.09,4.27-4.84,10.4c0,0,.89-6.44,4.84-10.4Z"/><path class="f71c6238-e39e-4857-84e4-b358caf1c98c" d="M83.58,46s3.6,9-5.82,14.57c0,0,5.94-6.64,5.82-14.57Z"/><path class="f71c6238-e39e-4857-84e4-b358caf1c98c" d="M82.44,56.92c2.08,5.11-3,10.57-3,10.57,1.2-1.72,3.1-6.12,2.11-9.48,0,0,.51-.58.86-1.09Z"/><path class="f71c6238-e39e-4857-84e4-b358caf1c98c" d="M62.59,54A25.64,25.64,0,0,0,60.85,41.6c5.3,5.54,2.44,13.84,2.44,13.84s-.47-.87-.7-1.42Z"/><path class="f71c6238-e39e-4857-84e4-b358caf1c98c" d="M66.71,60.88s7.1,4.27,4.84,10.4c0,0-.88-6.44-4.84-10.4Z"/><path class="f71c6238-e39e-4857-84e4-b358caf1c98c" d="M60.42,46s-3.6,9,5.82,14.57c0,0-5.95-6.64-5.82-14.57Z"/><path class="f71c6238-e39e-4857-84e4-b358caf1c98c" d="M61.56,56.92c-2.08,5.11,3,10.57,3,10.57-1.18-1.72-3.08-6.12-2.09-9.48,0,0-.51-.58-.86-1.09Z"/><path class="f71c6238-e39e-4857-84e4-b358caf1c98c" d="M54,62.59A25.65,25.65,0,0,1,41.6,60.86c5.54,5.3,13.83,2.43,13.83,2.43s-.87-.46-1.42-.7Z"/><path class="f71c6238-e39e-4857-84e4-b358caf1c98c" d="M60.88,66.72s4.26,7.09,10.39,4.83c0,0-6.44-.88-10.39-4.83Z"/><path class="f71c6238-e39e-4857-84e4-b358caf1c98c" d="M46,60.42s9-3.59,14.58,5.82c0,0-6.65-5.94-14.58-5.82Z"/><path class="f71c6238-e39e-4857-84e4-b358caf1c98c" d="M56.93,61.56c5.09-2.08,10.55,3,10.55,3-1.71-1.2-6.12-3.1-9.47-2.11,0,0-.58-.51-1.08-.86Z"/><path class="f71c6238-e39e-4857-84e4-b358caf1c98c" d="M54,81.41A25.72,25.72,0,0,0,41.6,83.15c5.54-5.3,13.83-2.44,13.83-2.44s-.87.46-1.42.7Z"/><path class="f71c6238-e39e-4857-84e4-b358caf1c98c" d="M60.88,77.29s4.26-7.1,10.39-4.84c0,0-6.44.88-10.39,4.84Z"/><path class="f71c6238-e39e-4857-84e4-b358caf1c98c" d="M46,83.58s9,3.6,14.58-5.81c0,0-6.65,5.94-14.58,5.81Z"/><path class="f71c6238-e39e-4857-84e4-b358caf1c98c" d="M56.93,82.45c5.09,2.08,10.55-3,10.55-3-1.71,1.19-6.12,3.08-9.47,2.08,0,0-.58.52-1.08.88Z"/><path class="f71c6238-e39e-4857-84e4-b358caf1c98c" d="M62.59,90a25.61,25.61,0,0,1-1.74,12.41c5.3-5.54,2.44-13.83,2.44-13.83s-.47.87-.7,1.42Z"/><path class="f71c6238-e39e-4857-84e4-b358caf1c98c" d="M66.71,83.12s7.1-4.25,4.84-10.4c0,0-.88,6.44-4.84,10.4Z"/><path class="f71c6238-e39e-4857-84e4-b358caf1c98c" d="M60.42,98s-3.6-9,5.82-14.58c0,0-5.95,6.65-5.82,14.58Z"/><path class="f71c6238-e39e-4857-84e4-b358caf1c98c" d="M61.56,87.08c-2.08-5.1,3-10.56,3-10.56-1.18,1.71-3.08,6.12-2.09,9.47,0,0-.51.58-.86,1.09Z"/><path class="f71c6238-e39e-4857-84e4-b358caf1c98c" d="M81.41,90a25.69,25.69,0,0,0,1.73,12.41c-5.29-5.54-2.43-13.83-2.43-13.83s.46.87.7,1.42Z"/><path class="f71c6238-e39e-4857-84e4-b358caf1c98c" d="M77.28,83.12s-7.09-4.25-4.84-10.4c0,0,.89,6.44,4.84,10.4Z"/><path class="f71c6238-e39e-4857-84e4-b358caf1c98c" d="M83.58,98s3.6-9-5.82-14.58c0,0,5.94,6.65,5.82,14.58Z"/><path class="f71c6238-e39e-4857-84e4-b358caf1c98c" d="M82.44,87.08c2.08-5.1-3-10.56-3-10.56,1.2,1.71,3.1,6.12,2.11,9.47,0,0,.51.58.86,1.09Z"/><path class="f71c6238-e39e-4857-84e4-b358caf1c98c" d="M90,81.41a25.78,25.78,0,0,1,12.42,1.74c-5.54-5.3-13.84-2.44-13.84-2.44s.87.46,1.42.7Z"/><path class="f71c6238-e39e-4857-84e4-b358caf1c98c" d="M83.12,77.29s-4.26-7.1-10.4-4.84c0,0,6.45.88,10.4,4.84Z"/><path class="f71c6238-e39e-4857-84e4-b358caf1c98c" d="M98,83.58s-9,3.6-14.58-5.81c0,0,6.65,5.94,14.58,5.81Z"/><path class="f71c6238-e39e-4857-84e4-b358caf1c98c" d="M87.07,82.45c-5.1,2.08-10.56-3-10.56-3,1.72,1.2,6.12,3.09,9.47,2.09,0,0,.59.52,1.09.88Z"/></svg>