<svg id="ac15a08f-0083-44fd-8323-f471759859ca" data-name="Layer 1" xmlns="http://www.w3.org/2000/svg" viewBox="0 0 144 144"><defs><style>.a8ff48a4-7417-4b91-918e-6fca9d1ef864{fill:#231f20;fill-rule:evenodd;}</style></defs><path class="a8ff48a4-7417-4b91-918e-6fca9d1ef864" d="M90.47,81.5c-2.82,1.21-4.29,1.81-5,2.09.11-.73.13-1,.13-1s.76-5.56-5.49-8.18c0,0-1.83-.77-5.16-1.78,0-.3,0-.54,0-.67h-.07v0h.07c0-.13,0-.38,0-.68,3.33-1,5.16-1.77,5.16-1.77,6.25-2.63,5.49-8.16,5.49-8.16s0-.24-.13-1c.7.29,2.16.9,5,2.11a15.25,15.25,0,0,0,.77-2.76c-2.79-.48-4.7-.79-6-1-.2-1.3-.51-3.2-1-6a12.89,12.89,0,0,0-2.75.77c1.21,2.82,1.81,4.29,2.09,5-.73-.11-1-.13-1-.13s-5.56-.76-8.18,5.49c0,0-.77,1.82-1.77,5.17l-.67,0s0,.09,0,.13h0a.59.59,0,0,0,0-.13l-.68,0c-1-3.35-1.77-5.17-1.77-5.17-2.62-6.25-8.17-5.49-8.17-5.49s-.24,0-1,.13c.29-.69.89-2.15,2.1-5a12.89,12.89,0,0,0-2.75-.77c-.48,2.79-.79,4.69-1,6-1.3.2-3.21.51-6,1a15.25,15.25,0,0,0,.77,2.76l5-2.11c-.11.75-.13,1-.13,1s-.77,5.53,5.5,8.16c0,0,1.81.77,5.14,1.77,0,.3,0,.55,0,.68h.07v0h-.07c0,.13,0,.37,0,.68-3.33,1-5.14,1.77-5.14,1.77-6.27,2.62-5.5,8.18-5.5,8.18s0,.24.13,1c-.69-.28-2.15-.88-5-2.09a15,15,0,0,0-.77,2.74c2.79.47,4.7.78,6,1,.2,1.31.51,3.22,1,6a16.67,16.67,0,0,0,2.75-.77c-1.21-2.84-1.82-4.31-2.1-5l1,.12s5.55.77,8.17-5.49A54.44,54.44,0,0,0,71.32,75l.68,0a1.79,1.79,0,0,1,0-.23h0c0,.08,0,.15,0,.23l.67,0a54.44,54.44,0,0,0,1.77,5.15c2.62,6.26,8.18,5.49,8.18,5.49l1-.12c-.28.69-.88,2.17-2.09,5a16.67,16.67,0,0,0,2.75.77c.48-2.8.79-4.71,1-6,1.31-.2,3.21-.51,6-1A15,15,0,0,0,90.47,81.5ZM75.64,65s.34-2.76,1.59-3.9c0,0,1.75-2.81,6.85-1.15,1.69,5.11-1.15,6.86-1.15,6.86-1.12,1.25-3.87,1.6-3.87,1.6l-3.86.43C75.41,66.92,75.64,65,75.64,65ZM65,68.36s-2.77-.35-3.88-1.6c0,0-2.84-1.75-1.16-6.86,5.11-1.66,6.85,1.15,6.85,1.15,1.25,1.14,1.6,3.9,1.6,3.9s.23,2,.43,3.84C66.91,68.59,65,68.36,65,68.36Zm3.41,10.69s-.35,2.76-1.6,3.88c0,0-1.74,2.83-6.85,1.15-1.68-5.09,1.16-6.84,1.16-6.84C62.18,76,65,75.62,65,75.62s2-.23,3.84-.43C68.59,77.07,68.36,79.05,68.36,79.05Zm8.87,3.88c-1.25-1.12-1.59-3.88-1.59-3.88s-.23-2-.44-3.86l3.86.43s2.75.35,3.87,1.62c0,0,2.84,1.75,1.15,6.84C79,85.76,77.23,82.93,77.23,82.93Z"/></svg>