<svg id="efbeab7a-e95b-40e1-8c58-e18f1f61332b" data-name="Layer 1" xmlns="http://www.w3.org/2000/svg" viewBox="0 0 144 144"><defs><style>.eba4cbe9-5867-4569-9174-6cc7329b385b{fill:#231f20;}</style></defs><path class="eba4cbe9-5867-4569-9174-6cc7329b385b" d="M68,50.48l-1.19.72,7.22,8.43c-2,1.32-4.14,4.58-3,7.24-.57-3.61,3.18-6.32,5.38-6.67Z"/><path class="eba4cbe9-5867-4569-9174-6cc7329b385b" d="M75.69,50.48l1.19.72-7.22,8.43c2,1.32,4.14,4.58,3,7.24.57-3.61-3.18-6.32-5.38-6.67Z"/><path class="eba4cbe9-5867-4569-9174-6cc7329b385b" d="M68.69,66.17c.57,1.45.83,2.64.55,3.28-.93-4.66-6.93-12.34-8.51-14.69l.74-.43.58-.33.73-.43c1.24,2.55,4.9,11.58,8.47,14.72C70.56,68.21,69.66,67.39,68.69,66.17Z"/><path class="eba4cbe9-5867-4569-9174-6cc7329b385b" d="M51.38,64.69l0,1.39,10.92-2c.13,2.4,1.88,5.87,4.77,6.2-3.41-1.31-3.88-5.91-3.08-8Z"/><path class="eba4cbe9-5867-4569-9174-6cc7329b385b" d="M55.21,58.05l1.22-.68,3.69,10.48c2.14-1.09,6-1.31,7.76,1-2.84-2.3-7.06-.4-8.47,1.32Z"/><path class="eba4cbe9-5867-4569-9174-6cc7329b385b" d="M65.3,72c1.54.23,2.69.6,3.11,1.16-4.5-1.53-14.15-.18-17,0V70.77c2.83.2,12.48,1.55,17,0C68,71.35,66.84,71.72,65.3,72Z"/><path class="eba4cbe9-5867-4569-9174-6cc7329b385b" d="M55.36,86.2l1.21.68,3.69-10.47c2.15,1.08,6,1.3,7.77-1-2.84,2.3-7.07.41-8.47-1.32Z"/><path class="eba4cbe9-5867-4569-9174-6cc7329b385b" d="M51.52,79.56l0-1.39,10.92,2c.13-2.4,1.89-5.87,4.78-6.2-3.41,1.31-3.88,5.91-3.09,8Z"/><path class="eba4cbe9-5867-4569-9174-6cc7329b385b" d="M68.61,77.78c1-1.22,1.87-2,2.56-2.11C67.6,78.8,64,87.83,62.7,90.38L62,90l-.58-.33-.74-.42c1.59-2.35,7.58-10,8.51-14.7C69.44,75.15,69.18,76.33,68.61,77.78Z"/><path class="eba4cbe9-5867-4569-9174-6cc7329b385b" d="M76,93.52l1.19-.72L70,84.37c2-1.32,4.14-4.57,3-7.24.57,3.61-3.18,6.32-5.38,6.67Z"/><path class="eba4cbe9-5867-4569-9174-6cc7329b385b" d="M68.31,93.51l-1.19-.71,7.22-8.43c-2-1.32-4.14-4.58-3-7.24-.57,3.61,3.18,6.32,5.38,6.67Z"/><path class="eba4cbe9-5867-4569-9174-6cc7329b385b" d="M75.31,77.82c-.57-1.44-.83-2.63-.55-3.27.93,4.66,6.92,12.34,8.51,14.69l-.74.43L82,90l-.73.43c-1.24-2.55-4.9-11.58-8.47-14.72C73.44,75.79,74.34,76.61,75.31,77.82Z"/><path class="eba4cbe9-5867-4569-9174-6cc7329b385b" d="M92.62,79.31l0-1.39L81.68,80c-.13-2.4-1.88-5.87-4.77-6.2,3.41,1.31,3.88,5.91,3.08,8Z"/><path class="eba4cbe9-5867-4569-9174-6cc7329b385b" d="M88.79,86l-1.22.68L83.88,76.15c-2.14,1.09-6,1.31-7.76-1,2.84,2.3,7.06.4,8.47-1.33Z"/><path class="eba4cbe9-5867-4569-9174-6cc7329b385b" d="M78.7,72c-1.54-.23-2.7-.6-3.11-1.16,4.5,1.53,14.15.18,17,0v2.37c-2.83-.2-12.48-1.55-17,0C76,72.65,77.16,72.28,78.7,72Z"/><path class="eba4cbe9-5867-4569-9174-6cc7329b385b" d="M88.64,57.8l-1.21-.68L83.74,67.59c-2.15-1.08-6-1.3-7.77,1,2.84-2.3,7.07-.41,8.47,1.32Z"/><path class="eba4cbe9-5867-4569-9174-6cc7329b385b" d="M92.48,64.44l0,1.39-10.92-2c-.13,2.4-1.89,5.87-4.78,6.2,3.41-1.31,3.88-5.91,3.09-8Z"/><path class="eba4cbe9-5867-4569-9174-6cc7329b385b" d="M75.39,66.22c-1,1.22-1.87,2-2.56,2.11,3.57-3.13,7.22-12.16,8.47-14.71L82,54l.58.34.74.42c-1.59,2.35-7.58,10-8.51,14.7C74.56,68.85,74.82,67.67,75.39,66.22Z"/><path class="eba4cbe9-5867-4569-9174-6cc7329b385b" d="M74.72,72A2.72,2.72,0,1,1,72,69.28,2.72,2.72,0,0,1,74.72,72Z"/></svg>