<svg id="ac1dfc53-3dc5-4c60-8991-9b6cb646d26b" data-name="Layer 1" xmlns="http://www.w3.org/2000/svg" viewBox="0 0 144 144"><path d="M54.18,80c-.27-1.58,1.09-2.71,2.23-3.63a21.6,21.6,0,0,0-2.95,1.32,5.86,5.86,0,0,0-2.22,1.92A2.22,2.22,0,0,0,52,82a8.8,8.8,0,0,0,2.7,2,2.3,2.3,0,0,0,2.14-.49.55.55,0,0,0,0-.5C56.13,81.93,54.51,81.4,54.18,80Z"/><path d="M53,77c2.09-1.93,5.13-1.87,7.93-1.72a25.4,25.4,0,0,0-5.15-1A6.88,6.88,0,0,0,49,77.48a1.2,1.2,0,0,0-.27,1c.34.46.88.48,1.38.59C51.47,79.31,52.16,77.86,53,77Z"/><path d="M50.12,67.91c2.71,3,7.52,1.64,10.79.83-2.48.15-5,.11-7-1-1.12-.59-1.58-1.89-2.65-2.57a2.52,2.52,0,0,0-2.19.07.65.65,0,0,0-.36.74A8.4,8.4,0,0,0,50.12,67.91Z"/><path d="M64.87,89.82c-1.65.38-2.56-1.37-3.54-2.38a1,1,0,0,0-.72-.33c-.25,0-.38.31-.5.51a2.42,2.42,0,0,0,.27,2.59A8.61,8.61,0,0,0,63,92.76a1.61,1.61,0,0,0,1.65-.18,12.29,12.29,0,0,0,2.92-5A5.73,5.73,0,0,1,64.87,89.82Z"/><path d="M77,91c-1.94-2.09-1.87-5.09-1.73-8a27.45,27.45,0,0,0-1,4.9,7,7,0,0,0,3.19,7.07,1.19,1.19,0,0,0,1,.27c.47-.33.48-.88.6-1.38C79.31,92.53,77.85,91.85,77,91Z"/><path d="M56.41,67.62a5.69,5.69,0,0,1-2.23-2.74,2,2,0,0,1,.33-1.59c.64-1,1.82-1.39,2.37-2.42a.52.52,0,0,0-.17-.54,2.37,2.37,0,0,0-2.92.07,8.81,8.81,0,0,0-2.55,2.65,1.59,1.59,0,0,0,.18,1.64A12.06,12.06,0,0,0,56.41,67.62Z"/><path d="M83.2,87.11c-1.22.6-1.68,2.2-3,2.65-1.64.48-2.86-1-3.81-2.16a24.18,24.18,0,0,0,1.32,3,5.67,5.67,0,0,0,1.92,2.21,1.75,1.75,0,0,0,1.66-.16,10.72,10.72,0,0,0,2.6-2.82,2.33,2.33,0,0,0-.19-2.47A.5.5,0,0,0,83.2,87.11Z"/><path d="M67.69,90.15c-.54,1-1.67,1.52-2.4,2.41A2.4,2.4,0,0,0,65.2,95a.64.64,0,0,0,.74.34,8.35,8.35,0,0,0,2-1.45c3-2.71,1.63-7.51.82-10.8C68.88,85.57,68.85,88.13,67.69,90.15Z"/><path d="M89.75,63.81c.48,1.64-1,2.86-2.16,3.81a22,22,0,0,0,2.94-1.32,5.63,5.63,0,0,0,2.22-1.92A2.23,2.23,0,0,0,92,62c-.94-.77-1.77-1.83-2.92-2.08a2.21,2.21,0,0,0-1.88.51.54.54,0,0,0-.1.47C87.78,62,89.31,62.51,89.75,63.81Z"/><path d="M76.38,56.42a5.68,5.68,0,0,1,2.74-2.23c1.34-.31,2.3.88,3,1.84.36.37.73,1,1.29.86s.54-.75.68-1.17a3.07,3.07,0,0,0-1-2.58,5.77,5.77,0,0,0-2.42-2,1.55,1.55,0,0,0-1.35.29A12,12,0,0,0,76.38,56.42Z"/><path d="M91,67c-2.07,1.94-5.12,1.86-7.93,1.74a22.41,22.41,0,0,0,6.37,1A6.62,6.62,0,0,0,95,66.61a1.27,1.27,0,0,0,.35-1c-.25-.48-.79-.51-1.24-.64C92.64,64.61,91.83,66.09,91,67Z"/><path d="M60.86,56.89c1.15-.66,1.64-2.19,2.94-2.64,1.64-.48,2.85,1,3.81,2.17a27.07,27.07,0,0,0-1.29-2.91,5,5,0,0,0-2.21-2.36,1.89,1.89,0,0,0-1.5.33,9.9,9.9,0,0,0-2.6,3,2.33,2.33,0,0,0,.37,2.34A.49.49,0,0,0,60.86,56.89Z"/><path d="M67,53c1.93,2.08,1.87,5.13,1.73,7.93a21.44,21.44,0,0,0,1-6.36A6.61,6.61,0,0,0,66.6,49c-.31-.21-.59-.46-1-.36-.52.3-.55.89-.66,1.4C64.69,51.48,66.14,52.16,67,53Z"/><path d="M76.3,53.86c.55-1,1.68-1.52,2.41-2.4A2.43,2.43,0,0,0,78.79,49a.69.69,0,0,0-.78-.36,9.09,9.09,0,0,0-1.92,1.47c-3,2.7-1.63,7.51-.82,10.79C75.11,58.44,75.14,55.88,76.3,53.86Z"/><path d="M87.59,76.39a5.66,5.66,0,0,1,2.22,2.74c.31,1.35-.88,2.32-1.83,3-.38.35-1,.73-.87,1.31.25.43.75.52,1.17.67a2.67,2.67,0,0,0,1.92-.51A8.75,8.75,0,0,0,92.75,81a1.62,1.62,0,0,0-.18-1.65A12.47,12.47,0,0,0,87.59,76.39Z"/><path d="M84.3,82.08l0,0a16.25,16.25,0,0,0-.41-4.62.72.72,0,0,0-.56-.41.83.83,0,0,0-.76.45c-.42,1.07-.14,2.45-.17,3.61a1.65,1.65,0,0,1-.59,0c.32-1.92.53-4.35-.45-6a7,7,0,0,1,3.09-1c1.82-.31,3.65.33,5.41-.16a.81.81,0,0,0,.53-.76c0-.22-.1-.36-.27-.51-1.07-.58-2.47-.34-3.7-.52a14.61,14.61,0,0,1,1.49-.06c.86-.1,1.81,0,2.42-.67.13-.17,0-.41,0-.6-.3-.58-1-.58-1.56-.64-2.54.12-5.38.38-7.41-1,1-1.69.77-4.11.45-6a1.39,1.39,0,0,1,.61,0,11.68,11.68,0,0,0,.1,3.5.85.85,0,0,0,.77.53.56.56,0,0,0,.51-.26c.63-1.39.42-3.15.5-4.74l0-.06a7.27,7.27,0,0,1,3.94,2.84,6.3,6.3,0,0,0-1-3,4.72,4.72,0,0,0-3.16-1.84,7.2,7.2,0,0,0-.31-1.15,4.9,4.9,0,0,0-4.56-3,7.26,7.26,0,0,1,2.84,4l0,0a16.31,16.31,0,0,0-4.62.42.69.69,0,0,0-.41.55.83.83,0,0,0,.45.76c1.08.43,2.44.14,3.61.17a2,2,0,0,1,0,.6c-1.92-.32-4.34-.54-6,.45a7.24,7.24,0,0,1-1-3.09c-.3-1.83.34-3.66-.14-5.42a.84.84,0,0,0-.77-.53.6.6,0,0,0-.51.26c-.57,1.08-.34,2.48-.52,3.71-.18-1.24.09-2.66-.53-3.73a.65.65,0,0,0-.8-.18c-.58.3-.58,1-.64,1.56.12,2.54.38,5.38-1,7.42-1.69-1-4.11-.77-6-.45a1.61,1.61,0,0,1,0-.62,10.76,10.76,0,0,0,3.5-.11.81.81,0,0,0,.54-.76.59.59,0,0,0-.26-.51c-1.39-.62-3.15-.42-4.74-.5l-.07,0a7.33,7.33,0,0,1,2.85-4,6.39,6.39,0,0,0-3,1,4.72,4.72,0,0,0-1.85,3.17,11,11,0,0,0-1.16.31,5,5,0,0,0-3,4.56,7.32,7.32,0,0,1,4-2.84l0,0a16.28,16.28,0,0,0,.41,4.62.72.72,0,0,0,.56.41.83.83,0,0,0,.77-.45c.42-1.07.13-2.44.15-3.6a1.67,1.67,0,0,1,.6,0c-.32,1.92-.53,4.34.46,6a7.58,7.58,0,0,1-3.1,1.06c-1.82.29-3.66-.35-5.41.13a.85.85,0,0,0-.53.76.57.57,0,0,0,.26.52c1.07.57,2.48.34,3.71.51-.48.06-1,.06-1.48.09-.87.08-1.82,0-2.43.67-.13.16,0,.4,0,.58.29.59,1,.59,1.56.65,2.54-.13,5.38-.39,7.42,1-1,1.68-.78,4.11-.46,6a1.29,1.29,0,0,1-.62,0,10.76,10.76,0,0,0-.1-3.5.81.81,0,0,0-.76-.54.58.58,0,0,0-.51.27c-.63,1.38-.43,3.14-.5,4.74l0,.06a7.37,7.37,0,0,1-4-2.84,6.38,6.38,0,0,0,1,3,4.64,4.64,0,0,0,3.17,1.85,6.62,6.62,0,0,0,.31,1.16,4.92,4.92,0,0,0,4.55,3,7.38,7.38,0,0,1-2.85-4l0,0a15.89,15.89,0,0,0,4.61-.41.68.68,0,0,0,.41-.56.85.85,0,0,0-.45-.76c-1.07-.42-2.44-.14-3.61-.17a1.91,1.91,0,0,1,0-.59c1.93.33,4.35.53,6-.45a7.15,7.15,0,0,1,1,3.08c.3,1.83-.34,3.67.14,5.42a.85.85,0,0,0,.77.53c.22,0,.37-.1.51-.27.58-1.06.34-2.46.51-3.7.07.49.06,1,.09,1.48.08.88,0,1.83.65,2.43.18.13.42,0,.61,0,.58-.29.57-1,.63-1.55-.12-2.55-.38-5.39,1-7.42,1.69,1,4.11.78,6,.45a1.29,1.29,0,0,1,0,.62,10.78,10.78,0,0,0-3.5.1.82.82,0,0,0-.53.76.55.55,0,0,0,.27.51c1.39.64,3.14.43,4.73.5l.06,0a7.32,7.32,0,0,1-2.84,4,6.24,6.24,0,0,0,3-1,4.69,4.69,0,0,0,1.86-3.16,7.11,7.11,0,0,0,1.14-.32c1.93-.63,2.89-2.67,3-4.54A7.32,7.32,0,0,1,84.3,82.08Zm-2-20.43,0,.83-.68-.13a2.59,2.59,0,0,1-.16-.72Zm-20,.66c-.19.12-.48.09-.71.18v-.84c.27,0,.56,0,.83,0Zm-.71,20v-.84l.67.16c.12.18.08.47.18.68ZM76.26,64.85l.78.07a3.71,3.71,0,0,0-.45-.39A7.29,7.29,0,0,1,81,63a7.39,7.39,0,0,1-1.48,4.39l-.39-.48a3.55,3.55,0,0,0,.06.8c-.34.35-.73.58-1.09.91a.79.79,0,0,1-.25-.29,15.94,15.94,0,0,0,2.06-4.1h0a7.45,7.45,0,0,1-2,1.91,6.53,6.53,0,0,1,1.89-2,14.57,14.57,0,0,0-1.89.75,13.5,13.5,0,0,0-2.23,1.3,2.64,2.64,0,0,1-.29-.21A10.61,10.61,0,0,1,76.26,64.85ZM72,59.11c.13,1.69.28,3.37,1.65,4.54-.22.61-.59-.23-1,.16a2.55,2.55,0,0,0-.61,1.75l-.09.19c-.19-.21,0-.55-.12-.81a1.84,1.84,0,0,0-.7-1.19c-.34-.24-.61.5-.81-.08C71.68,62.49,71.88,60.81,72,59.11Zm-4.59,5.4-.47.38a3.61,3.61,0,0,0,.8,0c.35.33.58.73.91,1.09a.87.87,0,0,1-.29.24,16.4,16.4,0,0,0-4.09-2.07v0a7.33,7.33,0,0,1,1.88,2,6.66,6.66,0,0,1-2-1.89,12.13,12.13,0,0,0,.74,1.89,13.5,13.5,0,0,0,1.3,2.23,2.16,2.16,0,0,1-.21.29,10.47,10.47,0,0,1-1.13-.91l.08-.78a3.21,3.21,0,0,0-.39.46A7.28,7.28,0,0,1,63,63,7.49,7.49,0,0,1,67.4,64.51ZM59.11,72c1.68-.12,3.35-.27,4.53-1.64.62.23-.23.59.16,1a2.55,2.55,0,0,0,1.75.63l.18.06c-.2.2-.55.06-.8.14a1.85,1.85,0,0,0-1.19.69c-.24.33.5.61-.08.8C62.48,72.32,60.8,72.13,59.11,72Zm8.62,7.17L67,79.09a2.53,2.53,0,0,0,.45.39A7.28,7.28,0,0,1,63,81,7.32,7.32,0,0,1,64.5,76.6l.39.48a4.42,4.42,0,0,0-.06-.81l1.09-.91a.71.71,0,0,1,.25.29,16,16,0,0,0-2.06,4.11h0a6.63,6.63,0,0,1,2-1.9,6.83,6.83,0,0,1-1.9,2,12,12,0,0,0,1.9-.74,13.84,13.84,0,0,0,2.22-1.3l.29.2A8.92,8.92,0,0,1,67.73,79.17ZM72,84.89c-.12-1.68-.27-3.35-1.64-4.52.22-.61.59.23.94-.17a2.45,2.45,0,0,0,.62-1.75l.08-.18c.2.2.06.54.12.8a1.89,1.89,0,0,0,.71,1.2c.33.23.6-.51.8.07C72.31,81.52,72.11,83.21,72,84.89Zm2.79-10a11.52,11.52,0,0,0-2.31,2.53,1,1,0,0,0-.48.41c-.07-.21-.31-.32-.47-.42a12.53,12.53,0,0,0-2.41-2.63,11.72,11.72,0,0,0-2.53-2.3,1,1,0,0,0-.41-.48c.21-.06.33-.32.43-.47a12.73,12.73,0,0,0,2.62-2.41,11.27,11.27,0,0,0,2.3-2.53,1,1,0,0,0,.47-.41c.09.22.32.32.48.43a13,13,0,0,0,2.41,2.62,11.25,11.25,0,0,0,2.53,2.3.91.91,0,0,0,.41.47c-.21.08-.33.32-.43.48A13.26,13.26,0,0,0,74.78,74.89Zm1.81,4.62.46-.4a4.27,4.27,0,0,0-.79.06c-.35-.35-.58-.73-.91-1.09a.72.72,0,0,1,.29-.25,15.94,15.94,0,0,0,4.1,2.06v0a7.16,7.16,0,0,1-1.9-2,6.74,6.74,0,0,1,2,1.9,14.58,14.58,0,0,0-2-4.12l.21-.29a10.72,10.72,0,0,1,1.13.91l-.08.78a3.71,3.71,0,0,0,.39-.45A7.23,7.23,0,0,1,81,81,7.43,7.43,0,0,1,76.59,79.51Zm3.77-5.86c-.62-.22.22-.59-.17-.94a2.46,2.46,0,0,0-1.75-.62L78.25,72c.21-.19.55,0,.81-.11a1.9,1.9,0,0,0,1.19-.71.65.65,0,0,0-.14-.59l.25-.23c1.16,1.37,2.84,1.52,4.53,1.64C83.2,72.14,81.52,72.28,80.36,73.65Zm2,8.71-.82,0,.12-.68c.2-.12.48-.09.7-.19Z"/><path d="M91.15,74.48c-2.77-.59-5.55.13-8.07.81,2.48-.17,5-.14,7.06,1,1.41.63,1.76,2.64,3.4,2.77a2.23,2.23,0,0,0,1.77-.59,1.1,1.1,0,0,0-.19-.89A7.41,7.41,0,0,0,91.15,74.48Z"/></svg>