<svg id="ba1b076b-e359-4bc2-ae2c-c998139e5cae" data-name="Layer 1" xmlns="http://www.w3.org/2000/svg" viewBox="0 0 144 144"><defs><style>.eaadc049-8ccf-44eb-8de3-dd498d38bf02{fill:#fff;}</style></defs><path d="M72,48.13,76.16,44a11,11,0,0,1,3.66.88l-3.06,3.17a13.2,13.2,0,0,1,1.77,3.44c1.52-1.44,3-3,4.5-4.45A10.13,10.13,0,0,1,85,49.62l-.06.17-5.65,5.64-4.61.06L77.09,53l-2.22-2.23a2.43,2.43,0,0,0,0-.77l-.51.5c-1.47.1-3.1,0-4.66.06l.06-.06-.49-.5c0,1.32-1.52,2-2.28,3,.76.85,1.63,1.66,2.44,2.48l-4.48.06-5.82-5.82A9.49,9.49,0,0,1,61,47.06c1.52,1.42,3,3,4.49,4.45a13.25,13.25,0,0,1,1.83-3.38L67.23,48c-1-1-2.11-2-3-3.11A13.75,13.75,0,0,1,67.9,44Z"/><path d="M72.12,53.28l2.09-2.11.06,4.48,2.66,2.67c.78-.67,1.51-1.48,2.27-2.22l-.06,4.65-4.31,4.32a16.71,16.71,0,0,1-3-.55,7.41,7.41,0,0,1-2.71.51l-4.26-4.28L64.8,56.1l2.32,2.22,2.66-2.67c0-1.41,0-3-.06-4.48l2.22,2.17Z"/><path d="M60.58,60.54c-.1,1.24,0,2.55-.06,3.82L54.1,57.93a8.48,8.48,0,0,1,4.48.73,17.25,17.25,0,0,0-.49-1.72,8.54,8.54,0,0,1-.17-2.89l6.44,6.43Z"/><path d="M85.4,58.6a10.71,10.71,0,0,1,4.6-.73l-6.48,6.49V60.6l-3.82-.06,6.42-6.43A10.21,10.21,0,0,1,85.4,58.6Z"/><polygon class="eaadc049-8ccf-44eb-8de3-dd498d38bf02" points="74.6 60.65 72.06 63.19 69.45 60.6 71.94 58.11 72.12 58.14 74.6 60.65"/><path d="M55.49,69.41,52.94,67l-2.16,2.15c-.22.12-.55,0-.79.11.19.15.32.42.57.45v4.66c-.25,0-.38.28-.57.43.18.21.49.08.74.12l2.21,2.22,2.55-2.45v4.48L49.67,85A9.34,9.34,0,0,1,47.07,83l4.43-4.44a10.73,10.73,0,0,0-1.61-.71,12.11,12.11,0,0,1-1.84-1.17l-3.14,3.11A11,11,0,0,1,44,76.1l4.1-4-.07-.16-4-4a9.07,9.07,0,0,1,.83-3.71l3.1,3.1a14.19,14.19,0,0,1,3.49-1.83L47.07,61a9.2,9.2,0,0,1,2.6-2l5.82,5.82Z"/><path d="M94.49,59.09A10.77,10.77,0,0,1,96.93,61l-4.38,4.49A14.06,14.06,0,0,1,96,67.29l3.16-3.1A8.31,8.31,0,0,1,99.92,68l-4,4,4.1,4.1a9.34,9.34,0,0,1-.83,3.72L96,76.71a12.43,12.43,0,0,1-3.44,1.84L96.93,83a5.47,5.47,0,0,1-1.6,1.43l-1,.56-5.82-5.83V74.66l2.56,2.45,2.21-2.22c.23,0,.56.09.72-.12-.19-.15-.32-.4-.56-.43V69.68c.24,0,.37-.3.56-.45l-.72-.11L91.12,67l-2.56,2.44V64.86l5.71-5.77Z"/><path d="M65.07,69.19a7.46,7.46,0,0,1-.56,2.75,9.87,9.87,0,0,1,.56,2.89l-4.32,4.31-4.66.06L58.31,77l-2.78-2.78H51.16L53.38,72l-2.22-2.21h4.49l2.66-2.66L58.26,67,56.09,64.8l4.66.06Z"/><path d="M85.73,67l2.83,2.83,4.32-.1-2.16,2.2.06.18,2.1,2.09H88.45l-2.72,2.72L88,79.2l-4.65-.06L79,74.83A7.76,7.76,0,0,1,79.54,72,8,8,0,0,1,79,69.19l4.32-4.33c1.58.06,3.06-.12,4.65-.06Z"/><polygon class="eaadc049-8ccf-44eb-8de3-dd498d38bf02" points="63.2 71.94 63.13 72.12 60.69 74.55 60.52 74.49 58.09 72.06 58.15 71.9 60.59 69.46 60.76 69.51 63.2 71.94"/><polygon class="eaadc049-8ccf-44eb-8de3-dd498d38bf02" points="85.9 72.12 83.46 74.55 83.3 74.49 80.81 72 83.36 69.46 85.95 71.94 85.9 72.12"/><path d="M72,79.54A8.32,8.32,0,0,1,74.87,79l4.27,4.28c.11,1.51,0,3.16.06,4.65L77,85.69l-2.77,2.78c.11,1.43,0,2.94.06,4.42l-2.21-2.22c-.79.68-1.52,1.48-2.28,2.22V88.4l-2.71-2.71-2.22,2.22A43.74,43.74,0,0,1,65,83.2l4.32-4.27A10.08,10.08,0,0,1,72,79.54Z"/><path d="M64.36,83.47,57.87,90a9.36,9.36,0,0,1,.77-4.48,12.44,12.44,0,0,0-1.72.44,11,11,0,0,1-2.87.22l6.47-6.43v3.72Z"/><path d="M89.94,86.13a10.53,10.53,0,0,1-4.48-.71,21.63,21.63,0,0,1,.73,3.48v1l-6.28-6.2-.21-.22,3.76-.06.06-3.77Z"/><polygon class="eaadc049-8ccf-44eb-8de3-dd498d38bf02" points="72.06 85.96 69.45 83.36 72 80.81 74.6 83.42 72.06 85.96"/><path d="M67,91l.06.16,2.1,2.11c.12.22,0,.56.12.78l.49-.51-.06,0h4.66l.51.56.1-.78,2.16-2.16-2.44-2.55H79.2L85,94.34a8.79,8.79,0,0,1-1.89,2.59c-1.5-1.45-3-2.85-4.49-4.37a8.92,8.92,0,0,0-.71,1.6l-1.12,1.78,3.06,3.15a8.34,8.34,0,0,1-3.66.89l-4.1-4.09L67.9,100a9.26,9.26,0,0,1-3.66-.83c1-1.05,2-2.13,3.05-3.15a14.62,14.62,0,0,1-1.83-3.5L61,96.93a9,9,0,0,1-1.94-2.49l0-.16,5.71-5.71h4.54Z"/></svg>