<svg id="e840727e-c8f7-410f-b6ff-fd6a94cd4b80" data-name="Layer 1" xmlns="http://www.w3.org/2000/svg" viewBox="0 0 144 144"><defs><style>.b7978784-0baa-472d-a18e-fad962949a95{fill:#231f20;fill-rule:evenodd;}</style></defs><polygon class="b7978784-0baa-472d-a18e-fad962949a95" points="79.36 50.09 72.44 50.09 72.05 50.09 65.13 50.09 66.73 56.09 72.25 59.08 77.76 56.09 79.36 50.09"/><polygon class="b7978784-0baa-472d-a18e-fad962949a95" points="72.25 59.08 69.44 60.48 72.25 65.68 75.04 60.48 72.25 59.08"/><polygon class="b7978784-0baa-472d-a18e-fad962949a95" points="62.48 63.59 61.84 66.65 67.64 67.7 65.32 62.27 62.48 63.59"/><polygon class="b7978784-0baa-472d-a18e-fad962949a95" points="59.89 52.42 55.58 57.82 55.33 58.14 51.02 63.54 56.71 66.03 62.48 63.59 63.58 57.41 59.89 52.42"/><polygon class="b7978784-0baa-472d-a18e-fad962949a95" points="59.92 74.03 61.91 76.45 66.36 72.56 60.66 70.99 59.92 74.03"/><polygon class="b7978784-0baa-472d-a18e-fad962949a95" points="49.57 69.1 51.11 75.83 51.2 76.23 52.73 82.97 58.23 80.07 59.92 74.03 55.78 69.32 49.57 69.1"/><polygon class="b7978784-0baa-472d-a18e-fad962949a95" points="66.49 82.55 69.62 82.5 69.35 76.6 64.58 80.08 66.49 82.55"/><polygon class="b7978784-0baa-472d-a18e-fad962949a95" points="56.18 87.57 62.41 90.56 62.77 90.74 69 93.74 70.16 87.63 66.49 82.55 60.22 82.85 56.18 87.57"/><polygon class="b7978784-0baa-472d-a18e-fad962949a95" points="74.73 93.91 80.96 90.91 81.33 90.73 87.56 87.74 83.5 83.02 77.24 82.72 73.57 87.81 74.73 93.91"/><polygon class="b7978784-0baa-472d-a18e-fad962949a95" points="77.24 82.72 79.16 80.24 74.38 76.78 74.12 82.68 77.24 82.72"/><polygon class="b7978784-0baa-472d-a18e-fad962949a95" points="88.22 69.71 84.08 74.42 85.77 80.47 91.27 83.36 92.8 76.62 92.89 76.22 94.43 69.48 88.22 69.71"/><polygon class="b7978784-0baa-472d-a18e-fad962949a95" points="77.65 72.95 82.1 76.83 84.08 74.42 83.34 71.38 77.65 72.95"/><path class="b7978784-0baa-472d-a18e-fad962949a95" d="M76.71,68l-2.85.4-1.61-2.74-1.46,2.47-3.15-.45,1,2.68-2.31,2.18,2.73.87.26,3.17L71.73,75l2.64,1.77.24-2.86,3-1-2.09-2Z"/><polygon class="b7978784-0baa-472d-a18e-fad962949a95" points="81.86 63.9 79.01 62.58 76.7 68.02 82.51 66.95 81.86 63.9"/><polygon class="b7978784-0baa-472d-a18e-fad962949a95" points="93.33 63.85 89.01 58.45 88.76 58.14 84.45 52.73 80.75 57.73 81.86 63.9 87.64 66.35 93.33 63.85"/></svg>