<svg id="a9f74ad6-0a84-4a11-b816-325c9478f72e" data-name="Layer 1" xmlns="http://www.w3.org/2000/svg" viewBox="0 0 144 144"><path d="M76.51,60.79c-1.51,0-6,2.65-9.38,11.21s-7.86,11.21-9.38,11.21H54.36c1.51,0,6-2.65,9.38-11.21s7.87-11.21,9.38-11.21Z"/><path d="M68.37,60.79c-1.51,0-6,2.65-9.38,11.21s-7.87,11.21-9.38,11.21H46.22c1.51,0,6-2.65,9.38-11.21S63.47,60.79,65,60.79Z"/><path d="M60.23,60.79c-1.51,0-6,2.65-9.38,11.21S43,83.21,41.47,83.21H38.08c1.51,0,6-2.65,9.38-11.21s7.86-11.21,9.38-11.21Z"/><path d="M74.19,63.09A24.72,24.72,0,0,1,79.73,72c3.39,8.56,7.87,11.21,9.38,11.21H87.34c-1.52,0-6-2.65-9.38-11.21a26.54,26.54,0,0,0-4.67-8l0,0a5.5,5.5,0,0,1,.89-.91Z"/><path d="M77.9,61.55a4.75,4.75,0,0,1,3.75,1c2,1.53,4.1,4.14,6.22,9.49,3.4,8.56,7.87,11.21,9.38,11.21H95.48c-1.51,0-6-2.65-9.38-11.21-2.61-6.59-5.46-9.27-7.49-10.32A1,1,0,0,0,77.9,61.55Z"/><path d="M86.57,61.55a4.75,4.75,0,0,1,3.75,1c2,1.53,4.1,4.14,6.22,9.49,3.39,8.56,7.87,11.21,9.38,11.21h-1.77c-1.52,0-6-2.65-9.38-11.21-2.62-6.59-5.46-9.27-7.49-10.32A1,1,0,0,0,86.57,61.55Z"/></svg>