<svg id="af83097e-bc9f-4ed9-8c47-5bf2cf77f0e4" data-name="Layer 1" xmlns="http://www.w3.org/2000/svg" viewBox="0 0 144 144"><defs><style>.a904ce3d-c4bf-472b-8344-1b48a5554cf2{fill:#231f20;fill-rule:evenodd;}</style></defs><path class="a904ce3d-c4bf-472b-8344-1b48a5554cf2" d="M72,71.94l13.5-22.86h0a.16.16,0,0,0-.16-.17h-.17S72.12,59.06,72,59.06,58.76,48.91,58.76,48.91H58.6v.17h0L72,71.94Z"/><path class="a904ce3d-c4bf-472b-8344-1b48a5554cf2" d="M72,71.94H45.41v.16h0v.13s15.44,6,15.44,6.13c.17.16-1.92,16.56-1.92,16.56v.17h.16L72,71.94Z"/><path class="a904ce3d-c4bf-472b-8344-1b48a5554cf2" d="M72,71.94H98.52s.16.16,0,.16h0v.13L82.91,78.69l2.23,16.23v.17h-.31L72,71.94Z"/></svg>